<?xml version="1.0" encoding="UTF-8"?>
<!DOCTYPE svg PUBLIC "-//W3C//DTD SVG 1.1//EN" "http://www.w3.org/Graphics/SVG/1.1/DTD/svg11.dtd">
<!-- Creator: CorelDRAW 2018 (64 Bit Versão de avaliação) -->
<svg xmlns="http://www.w3.org/2000/svg" xml:space="preserve" width="1080px" height="1080px" version="1.1" style="shape-rendering:geometricPrecision; text-rendering:geometricPrecision; image-rendering:optimizeQuality; fill-rule:evenodd; clip-rule:evenodd"
viewBox="0 0 1080 1080"
 xmlns:xlink="http://www.w3.org/1999/xlink">
 <defs>
  <style type="text/css">
   <![CDATA[
    .fil0 {fill:none}
    .fil1 {fill:black}
    .fil2 {fill:#ED3237;fill-rule:nonzero}
   ]]>
  </style>
 </defs>
 <g id="Camada_x0020_1">
  <metadata id="CorelCorpID_0Corel-Layer"/>
  <rect class="fil0" width="1080" height="1080"/>
  <path class="fil1" d="M536.8 685.61l-122.88 145.47c-20.12,23 -41.92,39.29 -65.4,48.88 -23.48,9.58 -42.41,15.33 -56.78,17.25 -14.37,1.91 -22.52,2.87 -24.43,2.87l-188.32 0 314.81 -367.99 143 153.52zm6.49 -301.87l120.75 -133.38c20.12,-21.09 42.17,-36.9 66.12,-47.44 23.96,-10.54 42.88,-17.01 56.78,-19.41 13.9,-2.39 21.81,-3.59 23.72,-3.59l182.56 0 -309.06 357.92 -140.87 -154.1z"/>
  <path class="fil2" d="M737.11 919l-673.28 -758 198.2 0c3.03,0 11.6,1.26 25.72,3.78 14.13,2.53 34.05,9.33 59.77,20.43 25.71,11.09 49.17,28.75 70.35,52.95l273.84 299.57 325.3 381.27 -279.9 0z"/>
 </g>
</svg>
