<?xml version="1.0" encoding="UTF-8"?>
<!DOCTYPE svg PUBLIC "-//W3C//DTD SVG 1.1//EN" "http://www.w3.org/Graphics/SVG/1.1/DTD/svg11.dtd">
<!-- Creator: CorelDRAW 2018 (64 Bit Versão de avaliação) -->
<svg xmlns="http://www.w3.org/2000/svg" xml:space="preserve" width="1080px" height="1080px" version="1.1" style="shape-rendering:geometricPrecision; text-rendering:geometricPrecision; image-rendering:optimizeQuality; fill-rule:evenodd; clip-rule:evenodd"
viewBox="0 0 1080 1080"
 xmlns:xlink="http://www.w3.org/1999/xlink">
 <defs>
  <style type="text/css">
   <![CDATA[
    .str1 {stroke:black;stroke-width:0.9;stroke-miterlimit:22.9256}
    .str2 {stroke:black;stroke-width:10.54;stroke-linecap:round;stroke-linejoin:round;stroke-miterlimit:22.9256}
    .str0 {stroke:black;stroke-width:10.54;stroke-linecap:round;stroke-linejoin:round;stroke-miterlimit:22.9256}
    .fil0 {fill:none}
    .fil8 {fill:#ED3237}
    .fil9 {fill:black}
    .fil2 {fill:#692F23}
    .fil7 {fill:#89D136}
    .fil6 {fill:#D89755}
    .fil1 {fill:#F5C390}
    .fil4 {fill:#FEFEFE;fill-rule:nonzero}
    .fil10 {fill:#ED3237;fill-rule:nonzero}
    .fil3 {fill:black;fill-rule:nonzero}
    .fil5 {fill:black;fill-rule:nonzero}
   ]]>
  </style>
 </defs>
 <g id="Camada_x0020_1">
  <metadata id="CorelCorpID_0Corel-Layer"/>
  <polygon class="fil0" points="0,0 1080,0 1080,1080 0,1080 "/>
  <g>
   <path class="fil0 str0" d="M371.13 425.59l364.87 0 0 0c0,-70.54 -57.71,-128.25 -128.25,-128.25l-108.38 0c-70.54,0 -128.24,57.71 -128.24,128.25l0 0z"/>
   <path id="1" class="fil1" d="M371.13 425.59l364.87 0 0 0c0,-70.54 -57.71,-128.25 -128.25,-128.25l-108.38 0c-70.54,0 -128.24,57.71 -128.24,128.25l0 0z"/>
  </g>
  <path class="fil2 str1" d="M369.92 477.9l363.99 0c15.46,0 28.1,12.64 28.1,28.1l0 0.01c0,15.46 -12.64,28.11 -28.1,28.11l-363.99 0c-15.46,0 -28.11,-12.65 -28.11,-28.11l0 -0.01c0,-15.46 12.65,-28.1 28.11,-28.1z"/>
  <g>
   <path class="fil0 str2" d="M359.99 548.42l383.84 0 0 12.94c0,21.68 -17.74,39.42 -39.42,39.42l-304.99 0c-21.69,0 -39.43,-17.74 -39.43,-39.42l0 -12.94z"/>
   <path id="1" class="fil1" d="M359.99 548.42l383.84 0 0 12.94c0,21.68 -17.74,39.42 -39.42,39.42l-304.99 0c-21.69,0 -39.43,-17.74 -39.43,-39.42l0 -12.94z"/>
  </g>
  <g>
   <g>
    <path class="fil3" d="M501.59 99.8c-1.71,-3.7 -0.1,-8.08 3.59,-9.79 3.7,-1.71 8.09,-0.1 9.8,3.6l-13.39 6.19zm32 34.61l-14.5 2.72 0 0 -0.16 -0.77 -0.2 -0.81 -0.24 -0.86 -0.28 -0.91 -0.32 -0.96 -0.36 -0.98 -0.4 -1.03 -0.43 -1.05 -0.47 -1.09 -0.49 -1.12 -0.52 -1.13 -0.55 -1.17 -0.58 -1.17 -0.59 -1.2 -0.62 -1.22 -0.63 -1.23 -0.64 -1.24 -0.66 -1.25 -0.68 -1.28 -0.67 -1.27 -0.69 -1.28 -0.69 -1.29 -0.69 -1.29 -0.69 -1.3 -0.69 -1.3 -0.68 -1.31 -0.68 -1.3 -0.66 -1.31 -0.66 -1.3 -0.65 -1.31 -0.62 -1.3 -0.61 -1.3 13.39 -6.19 0.54 1.15 0.56 1.18 0.59 1.19 0.61 1.21 0.63 1.22 0.64 1.24 0.66 1.25 0.66 1.27 0.68 1.27 0.68 1.28 0.69 1.28 0.69 1.3 0.69 1.3 0.69 1.3 0.69 1.3 0.68 1.31 0.67 1.3 0.66 1.31 0.65 1.3 0.63 1.31 0.62 1.3 0.59 1.3 0.58 1.29 0.55 1.3 0.53 1.29 0.5 1.29 0.47 1.29 0.43 1.29 0.4 1.29 0.36 1.29 0.32 1.3 0.27 1.3 0 0zm-14.69 61.54l-14.46 2.91 0 0 -0.46 -2.74 -0.28 -2.73 -0.1 -2.69 0.04 -2.64 0.2 -2.61 0.31 -2.56 0.44 -2.51 0.53 -2.45 0.62 -2.41 0.69 -2.35 0.76 -2.3 0.8 -2.26 0.84 -2.2 0.87 -2.14 0.88 -2.1 0.9 -2.05 0.88 -1.99 0.87 -1.94 0.85 -1.89 0.81 -1.82 0.77 -1.77 0.71 -1.69 0.65 -1.63 0.57 -1.55 0.49 -1.47 0.41 -1.37 0.32 -1.27 0.22 -1.16 0.13 -1.05 0.05 -0.91 -0.03 -0.8 -0.09 -0.68 14.5 -2.72 0.29 2.16 0.08 2.15 -0.11 2.1 -0.25 2.05 -0.38 2.02 -0.49 1.98 -0.58 1.95 -0.65 1.94 -0.71 1.92 -0.76 1.91 -0.8 1.91 -0.83 1.91 -0.85 1.91 -0.86 1.91 -0.86 1.92 -0.85 1.91 -0.84 1.92 -0.8 1.92 -0.78 1.92 -0.73 1.91 -0.69 1.91 -0.62 1.91 -0.56 1.89 -0.48 1.89 -0.41 1.87 -0.32 1.86 -0.23 1.85 -0.14 1.83 -0.03 1.81 0.07 1.81 0.18 1.79 0.3 1.81 0 -0.01zm10.46 21.06l-12.82 7.3 -0.33 -0.59 -0.35 -0.61 -0.38 -0.64 -0.38 -0.66 -0.39 -0.68 -0.41 -0.7 -0.42 -0.73 -0.42 -0.73 -0.44 -0.76 -0.43 -0.76 -0.44 -0.78 -0.45 -0.79 -0.44 -0.81 -0.45 -0.81 -0.44 -0.82 -0.44 -0.82 -0.43 -0.84 -0.43 -0.84 -0.42 -0.84 -0.42 -0.84 -0.4 -0.85 -0.39 -0.86 -0.38 -0.85 -0.37 -0.86 -0.35 -0.86 -0.34 -0.85 -0.31 -0.87 -0.3 -0.86 -0.28 -0.87 -0.25 -0.89 -0.23 -0.88 -0.19 -0.9 14.46 -2.91 0.08 0.39 0.12 0.44 0.13 0.47 0.17 0.52 0.19 0.55 0.21 0.58 0.24 0.61 0.26 0.63 0.28 0.66 0.3 0.67 0.31 0.68 0.33 0.7 0.35 0.71 0.36 0.72 0.37 0.73 0.39 0.73 0.39 0.74 0.4 0.74 0.4 0.74 0.41 0.74 0.41 0.73 0.42 0.74 0.41 0.73 0.41 0.71 0.42 0.72 0.4 0.7 0.4 0.69 0.4 0.69 0.39 0.67 0.38 0.65 0.37 0.65 0.36 0.63zm0 0c2.02,3.54 0.78,8.04 -2.76,10.06 -3.54,2.02 -8.04,0.78 -10.06,-2.76l12.82 -7.3z"/>
   </g>
   <g>
    <path class="fil3" d="M527.27 92.49c-1.71,-3.7 -0.09,-8.08 3.6,-9.79 3.7,-1.72 8.09,-0.1 9.8,3.6l-13.4 6.19zm36.32 43.93l-14.5 2.72 0 0 -0.21 -1.01 -0.27 -1.07 -0.31 -1.12 -0.36 -1.17 -0.41 -1.22 -0.46 -1.26 -0.5 -1.3 -0.55 -1.34 -0.59 -1.37 -0.62 -1.4 -0.65 -1.43 -0.69 -1.45 -0.72 -1.48 -0.74 -1.49 -0.77 -1.52 -0.79 -1.53 -0.8 -1.55 -0.82 -1.56 -0.84 -1.58 -0.84 -1.58 -0.85 -1.59 -0.85 -1.59 -0.86 -1.61 -0.85 -1.6 -0.85 -1.61 -0.84 -1.61 -0.84 -1.61 -0.82 -1.6 -0.81 -1.61 -0.79 -1.6 -0.77 -1.6 -0.75 -1.59 13.4 -6.19 0.68 1.44 0.71 1.47 0.73 1.49 0.76 1.51 0.78 1.53 0.8 1.54 0.82 1.56 0.83 1.57 0.84 1.58 0.84 1.58 0.86 1.6 0.85 1.6 0.86 1.6 0.85 1.61 0.84 1.61 0.84 1.61 0.83 1.61 0.81 1.6 0.79 1.61 0.78 1.6 0.76 1.59 0.73 1.59 0.7 1.59 0.68 1.58 0.64 1.57 0.6 1.57 0.57 1.56 0.53 1.55 0.48 1.56 0.43 1.55 0.38 1.54 0.32 1.55 0 0zm-18.19 76.25l-14.47 2.91 0 0 -0.44 -2.82 -0.23 -2.84 -0.04 -2.85 0.14 -2.86 0.28 -2.87 0.42 -2.88 0.54 -2.87 0.64 -2.88 0.73 -2.87 0.81 -2.86 0.88 -2.86 0.93 -2.85 0.98 -2.82 1.01 -2.81 1.03 -2.77 1.03 -2.74 1.04 -2.69 1.03 -2.64 1 -2.59 0.97 -2.52 0.92 -2.45 0.87 -2.36 0.8 -2.27 0.72 -2.17 0.63 -2.04 0.53 -1.91 0.43 -1.76 0.31 -1.59 0.19 -1.38 0.09 -1.15 -0.02 -0.88 -0.06 -0.59 14.5 -2.72 0.29 2.33 0.04 2.3 -0.17 2.28 -0.31 2.27 -0.45 2.28 -0.56 2.33 -0.66 2.35 -0.73 2.39 -0.81 2.44 -0.88 2.48 -0.92 2.51 -0.96 2.56 -0.99 2.58 -1.02 2.61 -1.02 2.63 -1.01 2.64 -1.01 2.66 -0.98 2.65 -0.95 2.64 -0.91 2.63 -0.85 2.6 -0.79 2.57 -0.72 2.53 -0.63 2.47 -0.54 2.41 -0.44 2.34 -0.32 2.24 -0.22 2.15 -0.1 2.04 0.03 1.92 0.14 1.78 0.26 1.64 0 0zm13.15 26.61l-12.82 7.3 -0.42 -0.73 -0.44 -0.76 -0.45 -0.8 -0.48 -0.81 -0.49 -0.85 -0.51 -0.87 -0.51 -0.89 -0.52 -0.91 -0.54 -0.93 -0.54 -0.95 -0.54 -0.96 -0.55 -0.97 -0.54 -0.99 -0.55 -1 -0.54 -1 -0.54 -1.01 -0.53 -1.02 -0.52 -1.03 -0.52 -1.03 -0.5 -1.03 -0.49 -1.03 -0.48 -1.04 -0.46 -1.03 -0.45 -1.04 -0.42 -1.04 -0.4 -1.03 -0.38 -1.04 -0.36 -1.03 -0.33 -1.04 -0.3 -1.04 -0.27 -1.05 -0.23 -1.05 14.47 -2.91 0.12 0.54 0.15 0.59 0.19 0.65 0.21 0.68 0.25 0.72 0.28 0.75 0.3 0.79 0.33 0.8 0.36 0.84 0.38 0.85 0.4 0.87 0.42 0.88 0.44 0.9 0.45 0.91 0.47 0.91 0.48 0.92 0.49 0.93 0.5 0.92 0.51 0.93 0.51 0.92 0.51 0.92 0.52 0.91 0.51 0.91 0.52 0.89 0.51 0.89 0.5 0.87 0.5 0.86 0.49 0.85 0.49 0.83 0.47 0.81 0.45 0.79 0.44 0.78zm0 0c2.02,3.54 0.78,8.04 -2.76,10.06 -3.53,2.02 -8.04,0.78 -10.06,-2.76l12.82 -7.3z"/>
   </g>
   <g>
    <path class="fil3" d="M570.54 155.52c-1.71,-3.69 -0.1,-8.08 3.6,-9.79 3.69,-1.71 8.08,-0.1 9.79,3.6l-13.39 6.19zm21.54 12.88l-14.75 0.35 0 0 -0.02 -0.31 -0.02 -0.3 -0.04 -0.3 -0.05 -0.28 -0.06 -0.28 -0.08 -0.28 -0.08 -0.27 -0.1 -0.29 -0.11 -0.29 -0.13 -0.31 -0.14 -0.3 -0.16 -0.33 -0.17 -0.34 -0.19 -0.34 -0.21 -0.35 -0.22 -0.38 -0.25 -0.39 -0.25 -0.39 -0.27 -0.42 -0.28 -0.43 -0.3 -0.44 -0.3 -0.46 -0.32 -0.49 -0.33 -0.49 -0.33 -0.52 -0.34 -0.53 -0.35 -0.57 -0.34 -0.58 -0.35 -0.6 -0.34 -0.63 -0.34 -0.66 -0.32 -0.68 13.39 -6.19 0.15 0.32 0.17 0.33 0.19 0.34 0.2 0.36 0.22 0.37 0.23 0.37 0.25 0.4 0.27 0.41 0.28 0.43 0.29 0.43 0.3 0.46 0.32 0.48 0.32 0.49 0.33 0.5 0.35 0.54 0.33 0.55 0.35 0.57 0.35 0.6 0.34 0.63 0.33 0.64 0.33 0.67 0.33 0.71 0.3 0.72 0.29 0.76 0.27 0.79 0.25 0.81 0.22 0.84 0.18 0.87 0.16 0.89 0.12 0.91 0.08 0.93 0.05 0.95 0 0zm-14.82 60.36l-14.46 2.91 0 0 -0.43 -2.57 -0.27 -2.55 -0.12 -2.53 0.03 -2.49 0.15 -2.46 0.27 -2.43 0.37 -2.38 0.46 -2.35 0.55 -2.3 0.61 -2.27 0.67 -2.22 0.72 -2.19 0.76 -2.15 0.79 -2.11 0.81 -2.07 0.83 -2.04 0.82 -1.99 0.82 -1.96 0.81 -1.91 0.78 -1.87 0.76 -1.83 0.72 -1.78 0.67 -1.74 0.61 -1.68 0.56 -1.62 0.49 -1.57 0.41 -1.5 0.34 -1.43 0.26 -1.35 0.17 -1.28 0.09 -1.19 0.02 -1.11 14.75 -0.35 -0.03 2.13 -0.16 2.11 -0.28 2.07 -0.39 2.04 -0.48 2.03 -0.55 2 -0.62 1.98 -0.67 1.97 -0.72 1.95 -0.75 1.95 -0.78 1.93 -0.79 1.93 -0.81 1.93 -0.81 1.92 -0.8 1.91 -0.79 1.9 -0.77 1.91 -0.74 1.89 -0.7 1.88 -0.67 1.87 -0.61 1.86 -0.56 1.84 -0.49 1.83 -0.43 1.81 -0.35 1.78 -0.28 1.77 -0.19 1.75 -0.11 1.72 -0.02 1.7 0.08 1.68 0.17 1.67 0.28 1.66 0 -0.01zm10.46 21.06l-12.81 7.3 -0.34 -0.58 -0.35 -0.62 -0.37 -0.64 -0.39 -0.66 -0.39 -0.68 -0.41 -0.7 -0.42 -0.73 -0.42 -0.73 -0.43 -0.75 -0.44 -0.77 -0.44 -0.78 -0.44 -0.79 -0.45 -0.8 -0.44 -0.82 -0.45 -0.82 -0.43 -0.83 -0.44 -0.82 -0.43 -0.84 -0.42 -0.85 -0.41 -0.84 -0.41 -0.85 -0.39 -0.86 -0.38 -0.85 -0.37 -0.85 -0.35 -0.86 -0.33 -0.86 -0.32 -0.86 -0.3 -0.87 -0.27 -0.87 -0.26 -0.89 -0.22 -0.88 -0.2 -0.9 14.46 -2.91 0.09 0.39 0.11 0.44 0.14 0.47 0.16 0.52 0.19 0.55 0.22 0.58 0.23 0.61 0.26 0.63 0.28 0.66 0.3 0.67 0.31 0.68 0.34 0.7 0.35 0.71 0.35 0.72 0.38 0.73 0.38 0.73 0.39 0.74 0.4 0.74 0.4 0.74 0.41 0.74 0.42 0.73 0.41 0.73 0.41 0.73 0.42 0.72 0.41 0.72 0.41 0.7 0.4 0.7 0.4 0.68 0.39 0.67 0.37 0.65 0.37 0.65 0.36 0.63zm0 0c2.02,3.54 0.79,8.04 -2.75,10.06 -3.54,2.01 -8.05,0.78 -10.06,-2.76l12.81 -7.3z"/>
   </g>
  </g>
  <g>
   <path class="fil3" d="M227.36 668.86l-4.34 7.23 0 0 -0.37 -0.22 -0.37 -0.21 -0.38 -0.2 -0.37 -0.2 -0.38 -0.18 -0.38 -0.18 -0.38 -0.18 -0.38 -0.17 -0.39 -0.16 -0.39 -0.15 -0.39 -0.15 -0.39 -0.14 -0.4 -0.13 -0.4 -0.13 -0.4 -0.12 -0.41 -0.11 -0.4 -0.11 -0.42 -0.1 -0.41 -0.09 -0.42 -0.09 -0.42 -0.08 -0.42 -0.07 -0.43 -0.07 -0.43 -0.05 -0.44 -0.06 -0.43 -0.04 -0.44 -0.04 -0.45 -0.03 -0.45 -0.02 -0.45 -0.02 -0.46 -0.01 -0.46 -0.01 0 -8.43 0.59 0.01 0.59 0.01 0.59 0.02 0.58 0.04 0.58 0.04 0.58 0.05 0.57 0.06 0.57 0.06 0.57 0.08 0.57 0.09 0.56 0.1 0.57 0.1 0.55 0.12 0.56 0.12 0.55 0.14 0.55 0.14 0.55 0.15 0.53 0.16 0.55 0.17 0.53 0.18 0.54 0.19 0.53 0.2 0.52 0.21 0.52 0.22 0.52 0.23 0.52 0.23 0.51 0.24 0.5 0.26 0.51 0.26 0.5 0.27 0.49 0.28 0.5 0.29 0 0zm13.1 12.63l-6.98 4.73 0 0 -0.28 -0.41 -0.28 -0.4 -0.29 -0.4 -0.29 -0.39 -0.29 -0.38 -0.3 -0.38 -0.3 -0.37 -0.3 -0.37 -0.31 -0.36 -0.3 -0.35 -0.31 -0.35 -0.31 -0.34 -0.32 -0.34 -0.32 -0.33 -0.33 -0.32 -0.32 -0.32 -0.32 -0.31 -0.34 -0.31 -0.33 -0.3 -0.34 -0.3 -0.34 -0.28 -0.34 -0.29 -0.35 -0.27 -0.35 -0.28 -0.35 -0.27 -0.35 -0.26 -0.36 -0.25 -0.36 -0.25 -0.37 -0.25 -0.37 -0.24 -0.37 -0.23 -0.37 -0.23 4.34 -7.23 0.47 0.29 0.48 0.31 0.47 0.3 0.46 0.31 0.46 0.32 0.46 0.33 0.46 0.33 0.44 0.34 0.45 0.35 0.43 0.35 0.44 0.36 0.44 0.37 0.42 0.37 0.42 0.38 0.41 0.38 0.42 0.4 0.41 0.4 0.4 0.4 0.4 0.41 0.39 0.42 0.39 0.42 0.38 0.44 0.38 0.43 0.38 0.45 0.37 0.45 0.37 0.45 0.36 0.46 0.35 0.47 0.36 0.48 0.34 0.48 0.35 0.48 0.34 0.5 0 0zm8.16 18.34l-8.14 2.19 0 0 -0.16 -0.58 -0.16 -0.56 -0.17 -0.56 -0.17 -0.56 -0.17 -0.56 -0.18 -0.55 -0.18 -0.54 -0.19 -0.53 -0.19 -0.54 -0.19 -0.53 -0.2 -0.51 -0.2 -0.52 -0.21 -0.52 -0.2 -0.5 -0.22 -0.5 -0.21 -0.5 -0.22 -0.49 -0.23 -0.48 -0.23 -0.48 -0.23 -0.48 -0.24 -0.47 -0.24 -0.46 -0.24 -0.47 -0.25 -0.45 -0.25 -0.45 -0.25 -0.44 -0.26 -0.44 -0.27 -0.44 -0.26 -0.43 -0.28 -0.42 -0.27 -0.42 -0.28 -0.42 6.98 -4.73 0.33 0.49 0.33 0.51 0.32 0.51 0.32 0.51 0.31 0.52 0.31 0.52 0.3 0.52 0.3 0.54 0.3 0.54 0.28 0.54 0.28 0.54 0.28 0.55 0.28 0.56 0.26 0.56 0.27 0.57 0.25 0.57 0.25 0.58 0.25 0.58 0.24 0.59 0.24 0.58 0.23 0.6 0.23 0.6 0.22 0.61 0.22 0.6 0.21 0.62 0.21 0.62 0.2 0.62 0.2 0.63 0.19 0.63 0.19 0.64 0.18 0.64 0.18 0.65 0 0zm2.79 22.27l-8.43 0 0 0 -0.01 -0.67 0 -0.68 -0.02 -0.67 -0.01 -0.67 -0.03 -0.67 -0.02 -0.66 -0.03 -0.66 -0.04 -0.65 -0.04 -0.65 -0.05 -0.65 -0.05 -0.65 -0.06 -0.64 -0.06 -0.64 -0.07 -0.63 -0.07 -0.64 -0.07 -0.63 -0.09 -0.63 -0.08 -0.62 -0.09 -0.61 -0.1 -0.62 -0.1 -0.62 -0.1 -0.6 -0.11 -0.61 -0.12 -0.6 -0.11 -0.6 -0.13 -0.6 -0.13 -0.59 -0.13 -0.59 -0.14 -0.59 -0.14 -0.58 -0.15 -0.58 -0.15 -0.58 8.14 -2.19 0.17 0.65 0.16 0.65 0.17 0.66 0.15 0.66 0.15 0.66 0.15 0.67 0.14 0.67 0.13 0.67 0.13 0.67 0.12 0.68 0.12 0.68 0.11 0.68 0.11 0.69 0.1 0.69 0.09 0.69 0.09 0.7 0.08 0.69 0.08 0.7 0.08 0.71 0.07 0.71 0.06 0.71 0.05 0.7 0.06 0.72 0.04 0.72 0.04 0.72 0.04 0.73 0.03 0.72 0.02 0.73 0.02 0.73 0.01 0.73 0.01 0.74 0.01 0.74 0 0zm-4.13 25.71l-7.88 -2.99 0 0 0.22 -0.58 0.21 -0.59 0.2 -0.6 0.2 -0.61 0.19 -0.61 0.18 -0.63 0.18 -0.63 0.17 -0.64 0.16 -0.64 0.16 -0.66 0.15 -0.67 0.14 -0.67 0.14 -0.68 0.13 -0.69 0.12 -0.7 0.12 -0.7 0.11 -0.72 0.1 -0.72 0.09 -0.73 0.09 -0.74 0.08 -0.75 0.08 -0.75 0.07 -0.76 0.06 -0.78 0.05 -0.78 0.05 -0.78 0.04 -0.8 0.03 -0.81 0.02 -0.81 0.02 -0.82 0.01 -0.83 0.01 -0.84 8.43 0 -0.01 0.91 -0.01 0.91 -0.02 0.89 -0.03 0.89 -0.03 0.89 -0.05 0.87 -0.05 0.87 -0.06 0.86 -0.06 0.86 -0.08 0.84 -0.08 0.85 -0.09 0.83 -0.1 0.83 -0.11 0.82 -0.12 0.81 -0.12 0.81 -0.13 0.8 -0.14 0.79 -0.15 0.79 -0.16 0.78 -0.16 0.77 -0.17 0.77 -0.18 0.75 -0.19 0.75 -0.2 0.75 -0.21 0.74 -0.21 0.73 -0.23 0.73 -0.23 0.71 -0.24 0.71 -0.25 0.7 -0.26 0.7 0 0zm-14.23 11.38l-4.42 7.18 -0.27 -7 0.48 -0.35 0.46 -0.36 0.46 -0.37 0.45 -0.37 0.44 -0.38 0.44 -0.38 0.42 -0.39 0.41 -0.4 0.41 -0.4 0.4 -0.41 0.38 -0.42 0.39 -0.42 0.37 -0.43 0.36 -0.43 0.36 -0.45 0.35 -0.45 0.33 -0.45 0.34 -0.46 0.32 -0.47 0.31 -0.48 0.31 -0.48 0.3 -0.49 0.29 -0.5 0.28 -0.5 0.28 -0.52 0.27 -0.51 0.25 -0.53 0.25 -0.53 0.25 -0.55 0.23 -0.55 0.23 -0.55 0.22 -0.57 7.88 2.99 -0.27 0.69 -0.28 0.7 -0.29 0.68 -0.3 0.68 -0.32 0.66 -0.33 0.67 -0.33 0.65 -0.35 0.64 -0.36 0.64 -0.36 0.63 -0.38 0.62 -0.39 0.62 -0.4 0.6 -0.42 0.6 -0.42 0.59 -0.43 0.58 -0.45 0.58 -0.45 0.56 -0.46 0.56 -0.48 0.55 -0.49 0.53 -0.49 0.53 -0.51 0.52 -0.51 0.51 -0.53 0.51 -0.54 0.5 -0.54 0.48 -0.56 0.48 -0.57 0.47 -0.57 0.45 -0.59 0.46 -0.59 0.44 -0.27 -7zm0.27 7c-1.88,1.37 -4.52,0.95 -5.89,-0.93 -1.37,-1.88 -0.95,-4.52 0.93,-5.89l4.96 6.82zm8.91 2.05l-6.92 4.81 0 -0.01 -0.2 -0.28 -0.21 -0.29 -0.2 -0.28 -0.2 -0.26 -0.21 -0.27 -0.2 -0.27 -0.21 -0.25 -0.2 -0.25 -0.21 -0.25 -0.2 -0.23 -0.21 -0.24 -0.21 -0.23 -0.21 -0.23 -0.2 -0.22 -0.22 -0.21 -0.2 -0.21 -0.21 -0.21 -0.21 -0.2 -0.21 -0.19 -0.21 -0.19 -0.21 -0.19 -0.22 -0.18 -0.2 -0.17 -0.22 -0.17 -0.21 -0.17 -0.21 -0.16 -0.21 -0.16 -0.22 -0.15 -0.21 -0.15 -0.21 -0.14 -0.22 -0.14 -0.21 -0.13 4.42 -7.18 0.32 0.2 0.32 0.21 0.32 0.22 0.32 0.22 0.32 0.22 0.31 0.23 0.31 0.24 0.31 0.24 0.3 0.24 0.31 0.26 0.3 0.25 0.3 0.26 0.29 0.27 0.3 0.27 0.29 0.28 0.28 0.28 0.29 0.29 0.28 0.29 0.28 0.3 0.28 0.3 0.28 0.3 0.27 0.32 0.27 0.31 0.27 0.32 0.27 0.33 0.26 0.33 0.26 0.33 0.26 0.34 0.26 0.35 0.25 0.35 0.25 0.35 0.26 0.36 -0.01 -0.01zm6.68 12.27l-7.77 3.27 0 0 -0.16 -0.37 -0.16 -0.37 -0.15 -0.36 -0.17 -0.36 -0.16 -0.36 -0.16 -0.36 -0.17 -0.36 -0.17 -0.35 -0.17 -0.36 -0.17 -0.34 -0.17 -0.35 -0.18 -0.35 -0.17 -0.33 -0.18 -0.35 -0.18 -0.34 -0.19 -0.34 -0.18 -0.33 -0.18 -0.33 -0.19 -0.33 -0.19 -0.33 -0.19 -0.33 -0.19 -0.32 -0.19 -0.32 -0.19 -0.31 -0.2 -0.33 -0.2 -0.31 -0.2 -0.31 -0.2 -0.31 -0.2 -0.31 -0.21 -0.31 -0.2 -0.3 -0.21 -0.3 6.92 -4.81 0.24 0.35 0.24 0.35 0.24 0.36 0.24 0.36 0.23 0.36 0.23 0.36 0.23 0.36 0.22 0.37 0.23 0.36 0.22 0.38 0.22 0.37 0.22 0.37 0.22 0.38 0.21 0.37 0.21 0.39 0.22 0.39 0.2 0.38 0.2 0.38 0.21 0.39 0.2 0.39 0.2 0.39 0.2 0.4 0.19 0.4 0.19 0.4 0.19 0.4 0.19 0.4 0.19 0.4 0.18 0.41 0.19 0.41 0.18 0.41 0.17 0.42 0.18 0.41 0 0zm4.34 14.24l-8.27 1.66 0 0.01 -0.08 -0.42 -0.09 -0.42 -0.09 -0.43 -0.1 -0.41 -0.09 -0.41 -0.1 -0.42 -0.1 -0.41 -0.1 -0.4 -0.1 -0.41 -0.11 -0.41 -0.11 -0.41 -0.11 -0.4 -0.11 -0.4 -0.12 -0.4 -0.11 -0.4 -0.12 -0.39 -0.12 -0.39 -0.13 -0.4 -0.12 -0.39 -0.13 -0.39 -0.13 -0.39 -0.13 -0.37 -0.14 -0.39 -0.13 -0.39 -0.14 -0.38 -0.14 -0.38 -0.14 -0.37 -0.15 -0.38 -0.15 -0.37 -0.15 -0.37 -0.15 -0.37 -0.15 -0.37 7.77 -3.27 0.18 0.42 0.17 0.42 0.17 0.43 0.16 0.42 0.17 0.43 0.16 0.42 0.16 0.43 0.16 0.44 0.15 0.43 0.15 0.43 0.15 0.44 0.15 0.44 0.14 0.44 0.15 0.44 0.13 0.44 0.14 0.44 0.14 0.45 0.13 0.45 0.13 0.44 0.12 0.46 0.13 0.45 0.12 0.46 0.12 0.45 0.11 0.45 0.12 0.47 0.11 0.46 0.11 0.45 0.11 0.47 0.1 0.47 0.1 0.46 0.1 0.47 0.1 0.47 0 0zm1.52 14.51l-8.43 0 0 0 0 -0.38 0 -0.38 -0.01 -0.39 -0.01 -0.38 -0.01 -0.38 -0.02 -0.39 -0.01 -0.39 -0.02 -0.39 -0.02 -0.39 -0.03 -0.39 -0.03 -0.4 -0.03 -0.39 -0.03 -0.4 -0.04 -0.39 -0.03 -0.4 -0.05 -0.4 -0.04 -0.41 -0.05 -0.4 -0.05 -0.4 -0.05 -0.41 -0.05 -0.41 -0.06 -0.41 -0.06 -0.41 -0.06 -0.41 -0.07 -0.42 -0.06 -0.41 -0.07 -0.41 -0.08 -0.42 -0.07 -0.42 -0.08 -0.42 -0.08 -0.42 -0.09 -0.43 8.27 -1.66 0.09 0.47 0.09 0.46 0.09 0.47 0.08 0.47 0.08 0.46 0.08 0.47 0.08 0.46 0.07 0.46 0.07 0.46 0.07 0.46 0.06 0.46 0.06 0.46 0.06 0.45 0.06 0.46 0.05 0.46 0.05 0.45 0.04 0.45 0.05 0.45 0.04 0.46 0.04 0.45 0.03 0.45 0.03 0.44 0.03 0.45 0.03 0.45 0.02 0.44 0.02 0.44 0.01 0.45 0.02 0.44 0.01 0.44 0.01 0.44 0 0.44 0 0.44 0 0zm-2.79 22.63l-8.14 -2.17 0 0 0.15 -0.58 0.15 -0.59 0.14 -0.59 0.14 -0.6 0.13 -0.6 0.13 -0.6 0.13 -0.61 0.12 -0.61 0.11 -0.61 0.11 -0.61 0.11 -0.63 0.1 -0.62 0.09 -0.63 0.09 -0.62 0.09 -0.64 0.08 -0.64 0.08 -0.64 0.07 -0.64 0.07 -0.65 0.06 -0.65 0.05 -0.66 0.06 -0.66 0.04 -0.66 0.04 -0.66 0.04 -0.67 0.03 -0.68 0.03 -0.68 0.02 -0.67 0.02 -0.69 0.01 -0.69 0.01 -0.69 0 -0.69 8.43 0 0 0.75 -0.01 0.76 -0.01 0.74 -0.02 0.75 -0.03 0.74 -0.03 0.74 -0.03 0.74 -0.04 0.73 -0.05 0.73 -0.05 0.73 -0.05 0.72 -0.07 0.73 -0.07 0.72 -0.07 0.71 -0.08 0.71 -0.08 0.71 -0.09 0.7 -0.09 0.71 -0.11 0.7 -0.1 0.7 -0.12 0.69 -0.11 0.69 -0.12 0.69 -0.13 0.68 -0.14 0.68 -0.14 0.68 -0.14 0.68 -0.15 0.67 -0.16 0.67 -0.16 0.66 -0.16 0.66 -0.18 0.66 0 0zm-8.14 18.57l-7.01 -4.68 0 0 0.28 -0.43 0.28 -0.43 0.26 -0.43 0.27 -0.44 0.27 -0.44 0.26 -0.45 0.25 -0.45 0.26 -0.46 0.24 -0.46 0.25 -0.47 0.24 -0.47 0.24 -0.48 0.23 -0.48 0.23 -0.49 0.22 -0.5 0.22 -0.49 0.22 -0.5 0.21 -0.52 0.21 -0.51 0.21 -0.52 0.2 -0.52 0.2 -0.53 0.19 -0.54 0.19 -0.54 0.19 -0.54 0.18 -0.55 0.18 -0.56 0.17 -0.56 0.17 -0.57 0.17 -0.57 0.16 -0.58 0.16 -0.58 8.14 2.17 -0.17 0.65 -0.19 0.65 -0.18 0.65 -0.19 0.64 -0.2 0.63 -0.2 0.63 -0.21 0.63 -0.21 0.62 -0.22 0.62 -0.22 0.61 -0.23 0.6 -0.23 0.61 -0.23 0.59 -0.25 0.6 -0.24 0.58 -0.25 0.58 -0.26 0.59 -0.26 0.57 -0.27 0.56 -0.27 0.58 -0.28 0.55 -0.28 0.55 -0.29 0.56 -0.29 0.54 -0.29 0.54 -0.31 0.54 -0.31 0.52 -0.31 0.53 -0.32 0.52 -0.32 0.51 -0.33 0.52 -0.33 0.5 0 0zm-13.07 12.86l-4.44 -7.17 0.01 0 0.37 -0.23 0.37 -0.25 0.37 -0.24 0.37 -0.25 0.36 -0.26 0.36 -0.27 0.36 -0.26 0.35 -0.28 0.35 -0.28 0.35 -0.28 0.34 -0.29 0.34 -0.3 0.34 -0.3 0.34 -0.32 0.33 -0.31 0.32 -0.32 0.33 -0.32 0.33 -0.33 0.31 -0.34 0.32 -0.35 0.32 -0.35 0.31 -0.35 0.31 -0.36 0.3 -0.37 0.3 -0.37 0.3 -0.39 0.3 -0.38 0.29 -0.39 0.3 -0.4 0.28 -0.41 0.29 -0.41 0.28 -0.41 7.01 4.68 -0.34 0.5 -0.34 0.49 -0.35 0.49 -0.35 0.48 -0.35 0.47 -0.37 0.47 -0.36 0.47 -0.37 0.45 -0.38 0.45 -0.37 0.45 -0.39 0.44 -0.39 0.43 -0.39 0.42 -0.4 0.43 -0.4 0.41 -0.4 0.4 -0.42 0.41 -0.41 0.39 -0.42 0.39 -0.43 0.38 -0.43 0.37 -0.43 0.37 -0.44 0.36 -0.44 0.35 -0.45 0.35 -0.45 0.34 -0.46 0.33 -0.46 0.33 -0.47 0.32 -0.46 0.32 -0.48 0.3 -0.47 0.3 0 0zm-17.49 4.87l0 -8.43 0 0 0.46 -0.01 0.45 -0.01 0.45 -0.01 0.45 -0.03 0.44 -0.03 0.44 -0.04 0.44 -0.05 0.43 -0.05 0.43 -0.06 0.43 -0.07 0.42 -0.07 0.42 -0.08 0.41 -0.09 0.41 -0.1 0.42 -0.1 0.4 -0.11 0.4 -0.11 0.41 -0.13 0.39 -0.13 0.4 -0.13 0.39 -0.14 0.39 -0.16 0.39 -0.16 0.38 -0.16 0.38 -0.17 0.39 -0.18 0.38 -0.19 0.37 -0.19 0.37 -0.2 0.38 -0.21 0.37 -0.21 0.36 -0.23 4.44 7.17 -0.49 0.3 -0.5 0.29 -0.5 0.28 -0.5 0.27 -0.51 0.26 -0.52 0.26 -0.51 0.24 -0.52 0.23 -0.52 0.23 -0.53 0.21 -0.53 0.2 -0.54 0.2 -0.53 0.19 -0.54 0.17 -0.55 0.17 -0.55 0.16 -0.55 0.14 -0.55 0.14 -0.56 0.13 -0.56 0.12 -0.56 0.11 -0.57 0.1 -0.57 0.09 -0.57 0.08 -0.57 0.07 -0.58 0.06 -0.58 0.05 -0.58 0.04 -0.58 0.04 -0.59 0.02 -0.59 0.01 -0.59 0.01 0 0zm-89.94 -8.43l89.94 0 0 8.43 -89.94 0 -4.22 -4.22 4.22 -4.21zm0 8.43c-2.33,0 -4.22,-1.89 -4.22,-4.22 0,-2.32 1.89,-4.21 4.22,-4.21l0 8.43zm4.21 -199.83l0 195.61 -8.43 0 0 -195.61 4.22 -4.22 4.21 4.22zm-8.43 0c0,-2.33 1.89,-4.22 4.22,-4.22 2.32,0 4.21,1.89 4.21,4.22l-8.43 0zm90.79 4.21l-86.57 0 0 -8.43 86.57 0 0 0 0 8.43zm-15.39 84.01l-33.91 0 0 -8.43 33.91 0 0 0 0 8.43zm12.62 -33.51l8.43 0 0 0 -0.02 1.88 -0.05 1.83 -0.09 1.78 -0.12 1.72 -0.15 1.68 -0.2 1.62 -0.23 1.58 -0.27 1.52 -0.3 1.48 -0.35 1.43 -0.39 1.38 -0.43 1.33 -0.47 1.28 -0.52 1.24 -0.56 1.18 -0.62 1.14 -0.66 1.09 -0.72 1.03 -0.77 0.98 -0.83 0.92 -0.87 0.86 -0.93 0.79 -0.99 0.72 -1.03 0.65 -1.07 0.57 -1.11 0.5 -1.16 0.41 -1.18 0.34 -1.2 0.26 -1.23 0.18 -1.25 0.11 -1.28 0.03 0 -8.43 0.8 -0.02 0.76 -0.07 0.7 -0.1 0.67 -0.14 0.63 -0.18 0.59 -0.21 0.56 -0.25 0.54 -0.29 0.52 -0.33 0.5 -0.36 0.48 -0.41 0.47 -0.46 0.45 -0.51 0.45 -0.56 0.43 -0.63 0.42 -0.69 0.41 -0.75 0.39 -0.81 0.36 -0.88 0.35 -0.95 0.33 -1.01 0.3 -1.09 0.28 -1.14 0.25 -1.21 0.23 -1.28 0.19 -1.35 0.17 -1.4 0.14 -1.48 0.11 -1.53 0.08 -1.6 0.04 -1.66 0.02 -1.73 0 0zm-3.8 -20.36l7.38 -4.06 0 0 0.32 0.58 0.3 0.6 0.29 0.61 0.28 0.62 0.27 0.64 0.25 0.65 0.25 0.65 0.23 0.67 0.23 0.68 0.21 0.69 0.2 0.7 0.19 0.71 0.19 0.73 0.17 0.73 0.16 0.74 0.15 0.77 0.14 0.76 0.14 0.78 0.12 0.79 0.11 0.8 0.11 0.81 0.09 0.83 0.09 0.83 0.07 0.85 0.07 0.86 0.06 0.87 0.05 0.88 0.04 0.9 0.03 0.91 0.02 0.91 0.02 0.93 0 0.94 -8.43 0 0 -0.86 -0.02 -0.85 -0.02 -0.83 -0.02 -0.82 -0.04 -0.8 -0.04 -0.79 -0.06 -0.78 -0.06 -0.76 -0.06 -0.75 -0.08 -0.73 -0.08 -0.72 -0.09 -0.7 -0.1 -0.69 -0.1 -0.67 -0.12 -0.67 -0.11 -0.64 -0.13 -0.63 -0.14 -0.61 -0.14 -0.61 -0.14 -0.58 -0.16 -0.57 -0.16 -0.56 -0.17 -0.54 -0.17 -0.52 -0.18 -0.51 -0.18 -0.5 -0.2 -0.48 -0.19 -0.47 -0.2 -0.45 -0.21 -0.44 -0.22 -0.42 -0.21 -0.41 0 0zm-8.82 -5.68l0 -8.43 0 0 0.64 0.01 0.63 0.02 0.63 0.05 0.62 0.07 0.62 0.09 0.61 0.11 0.61 0.13 0.6 0.16 0.59 0.17 0.59 0.19 0.58 0.22 0.56 0.24 0.56 0.25 0.55 0.28 0.54 0.3 0.53 0.32 0.52 0.34 0.5 0.36 0.49 0.37 0.48 0.4 0.47 0.41 0.45 0.42 0.44 0.45 0.43 0.46 0.41 0.48 0.41 0.49 0.39 0.51 0.37 0.52 0.36 0.53 0.35 0.55 0.34 0.57 0.33 0.58 -7.38 4.06 -0.23 -0.39 -0.22 -0.37 -0.23 -0.36 -0.23 -0.34 -0.23 -0.33 -0.24 -0.3 -0.23 -0.29 -0.24 -0.28 -0.25 -0.26 -0.24 -0.24 -0.25 -0.24 -0.24 -0.22 -0.25 -0.2 -0.26 -0.2 -0.25 -0.17 -0.26 -0.18 -0.26 -0.15 -0.26 -0.15 -0.27 -0.13 -0.28 -0.13 -0.28 -0.12 -0.28 -0.11 -0.3 -0.09 -0.3 -0.09 -0.31 -0.08 -0.31 -0.07 -0.33 -0.06 -0.34 -0.04 -0.34 -0.04 -0.36 -0.03 -0.37 -0.02 -0.38 0 0 0zm-33.91 -8.43l33.91 0 0 8.43 -33.91 0 -4.21 -4.22 4.21 -4.21zm0 8.43c-2.33,0 -4.21,-1.89 -4.21,-4.22 0,-2.33 1.88,-4.21 4.21,-4.21l0 8.43zm-4.21 55.34l0 -59.56 8.43 0 0 59.56 -4.22 4.21 -4.21 -4.21zm8.43 0c0,2.32 -1.89,4.21 -4.22,4.21 -2.33,0 -4.21,-1.89 -4.21,-4.21l8.43 0zm32.82 91.85l-37.04 0 0 -8.43 37.04 0 0 0 0 8.43zm8.66 -15.03l7.45 3.96 0 0 -0.34 0.62 -0.35 0.61 -0.36 0.59 -0.37 0.58 -0.38 0.56 -0.39 0.55 -0.4 0.53 -0.41 0.52 -0.42 0.5 -0.44 0.48 -0.44 0.47 -0.46 0.45 -0.47 0.43 -0.49 0.42 -0.49 0.39 -0.51 0.38 -0.52 0.35 -0.53 0.34 -0.54 0.31 -0.55 0.3 -0.57 0.27 -0.57 0.25 -0.58 0.22 -0.59 0.2 -0.6 0.18 -0.61 0.15 -0.61 0.13 -0.61 0.11 -0.62 0.08 -0.63 0.06 -0.63 0.03 -0.63 0.01 0 -8.43 0.33 0 0.31 -0.02 0.31 -0.03 0.3 -0.04 0.29 -0.05 0.29 -0.06 0.27 -0.07 0.28 -0.08 0.27 -0.1 0.27 -0.1 0.27 -0.11 0.26 -0.13 0.26 -0.14 0.26 -0.15 0.27 -0.16 0.26 -0.18 0.26 -0.2 0.26 -0.21 0.26 -0.22 0.26 -0.24 0.27 -0.26 0.26 -0.27 0.26 -0.3 0.27 -0.31 0.25 -0.32 0.27 -0.36 0.26 -0.36 0.26 -0.39 0.26 -0.4 0.25 -0.43 0.26 -0.44 0.25 -0.46 0 -0.01zm4.2 -21.14l8.43 0 0 0 -0.01 0.93 -0.01 0.92 -0.02 0.91 -0.04 0.91 -0.04 0.89 -0.06 0.88 -0.06 0.87 -0.07 0.87 -0.08 0.86 -0.1 0.84 -0.1 0.84 -0.11 0.83 -0.13 0.82 -0.13 0.8 -0.14 0.8 -0.16 0.79 -0.16 0.78 -0.18 0.77 -0.18 0.76 -0.2 0.75 -0.2 0.74 -0.22 0.74 -0.23 0.72 -0.24 0.71 -0.25 0.71 -0.26 0.7 -0.27 0.68 -0.29 0.67 -0.29 0.67 -0.31 0.66 -0.31 0.64 -0.33 0.64 -7.45 -3.96 0.25 -0.47 0.24 -0.5 0.24 -0.5 0.22 -0.51 0.22 -0.53 0.22 -0.54 0.2 -0.55 0.2 -0.55 0.19 -0.57 0.19 -0.59 0.17 -0.59 0.17 -0.61 0.16 -0.62 0.16 -0.63 0.14 -0.64 0.14 -0.66 0.13 -0.67 0.12 -0.67 0.12 -0.69 0.1 -0.7 0.1 -0.72 0.09 -0.72 0.08 -0.74 0.07 -0.75 0.07 -0.76 0.05 -0.77 0.05 -0.79 0.04 -0.8 0.03 -0.8 0.02 -0.82 0.01 -0.84 0.01 -0.84 0 0zm-1.11 -11.35l8.24 -1.75 0 0 0.09 0.39 0.07 0.39 0.08 0.38 0.07 0.4 0.07 0.39 0.07 0.39 0.06 0.39 0.07 0.41 0.05 0.39 0.06 0.4 0.06 0.41 0.05 0.4 0.05 0.4 0.04 0.4 0.05 0.41 0.04 0.42 0.04 0.41 0.03 0.4 0.04 0.42 0.03 0.41 0.03 0.42 0.02 0.41 0.03 0.43 0.02 0.42 0.02 0.41 0.01 0.43 0.02 0.42 0.01 0.43 0.01 0.43 0 0.43 0.01 0.43 0 0.43 -8.43 0 0 -0.38 -0.01 -0.38 0 -0.38 -0.01 -0.38 -0.01 -0.38 -0.01 -0.37 -0.02 -0.37 -0.01 -0.38 -0.02 -0.37 -0.02 -0.36 -0.02 -0.36 -0.03 -0.37 -0.03 -0.36 -0.03 -0.36 -0.03 -0.36 -0.03 -0.36 -0.04 -0.34 -0.03 -0.36 -0.05 -0.35 -0.04 -0.35 -0.04 -0.35 -0.05 -0.33 -0.05 -0.35 -0.05 -0.35 -0.05 -0.33 -0.06 -0.34 -0.06 -0.34 -0.05 -0.33 -0.06 -0.33 -0.07 -0.33 -0.06 -0.33 -0.07 -0.33 0 0.01zm-3.08 -8.8l7.42 -4 0 0 0.17 0.3 0.16 0.31 0.15 0.31 0.16 0.32 0.15 0.31 0.15 0.32 0.15 0.32 0.14 0.33 0.14 0.32 0.14 0.33 0.14 0.34 0.13 0.33 0.13 0.34 0.13 0.34 0.12 0.33 0.12 0.35 0.12 0.35 0.12 0.35 0.12 0.35 0.11 0.35 0.11 0.36 0.11 0.36 0.1 0.36 0.11 0.37 0.1 0.36 0.09 0.38 0.1 0.37 0.09 0.36 0.09 0.39 0.09 0.38 0.08 0.37 0.08 0.39 -8.24 1.75 -0.07 -0.33 -0.07 -0.32 -0.08 -0.32 -0.07 -0.31 -0.08 -0.31 -0.08 -0.32 -0.08 -0.3 -0.08 -0.3 -0.08 -0.29 -0.09 -0.3 -0.09 -0.29 -0.08 -0.29 -0.1 -0.29 -0.09 -0.28 -0.09 -0.28 -0.1 -0.27 -0.09 -0.27 -0.11 -0.28 -0.1 -0.27 -0.1 -0.26 -0.1 -0.26 -0.11 -0.26 -0.1 -0.25 -0.11 -0.25 -0.11 -0.25 -0.11 -0.24 -0.12 -0.25 -0.11 -0.24 -0.12 -0.23 -0.12 -0.24 -0.12 -0.23 -0.12 -0.22 0 0zm-4.28 -5.33l5.16 -6.66 0.01 0 0.24 0.19 0.25 0.2 0.24 0.2 0.23 0.21 0.23 0.2 0.24 0.21 0.23 0.23 0.23 0.22 0.21 0.21 0.23 0.23 0.22 0.24 0.21 0.23 0.21 0.24 0.22 0.24 0.2 0.25 0.21 0.25 0.21 0.26 0.19 0.24 0.2 0.26 0.19 0.27 0.19 0.26 0.2 0.27 0.18 0.27 0.19 0.28 0.18 0.29 0.18 0.27 0.17 0.29 0.18 0.29 0.17 0.29 0.17 0.29 0.17 0.31 0.16 0.3 -7.42 4 -0.12 -0.23 -0.12 -0.21 -0.13 -0.22 -0.12 -0.22 -0.12 -0.2 -0.13 -0.2 -0.13 -0.21 -0.13 -0.2 -0.13 -0.19 -0.13 -0.19 -0.13 -0.18 -0.13 -0.19 -0.13 -0.17 -0.13 -0.18 -0.14 -0.18 -0.13 -0.16 -0.14 -0.16 -0.13 -0.16 -0.14 -0.15 -0.13 -0.15 -0.15 -0.16 -0.13 -0.14 -0.14 -0.14 -0.14 -0.15 -0.14 -0.14 -0.13 -0.12 -0.14 -0.13 -0.15 -0.13 -0.15 -0.13 -0.14 -0.11 -0.13 -0.11 -0.15 -0.12 0 0zm-4.39 -1.53l0 -8.44 0 0 0.32 0.01 0.33 0.01 0.32 0.01 0.32 0.03 0.32 0.03 0.32 0.03 0.32 0.04 0.31 0.05 0.32 0.06 0.32 0.06 0.31 0.07 0.31 0.07 0.31 0.09 0.31 0.08 0.3 0.1 0.31 0.1 0.3 0.11 0.3 0.12 0.3 0.12 0.29 0.12 0.29 0.14 0.3 0.14 0.28 0.14 0.28 0.15 0.28 0.16 0.28 0.16 0.28 0.17 0.27 0.18 0.27 0.18 0.26 0.19 0.27 0.19 0.25 0.2 -5.16 6.66 -0.13 -0.1 -0.13 -0.09 -0.13 -0.1 -0.14 -0.09 -0.13 -0.08 -0.13 -0.08 -0.13 -0.08 -0.13 -0.07 -0.13 -0.07 -0.14 -0.07 -0.12 -0.06 -0.13 -0.06 -0.14 -0.06 -0.13 -0.06 -0.13 -0.05 -0.13 -0.04 -0.14 -0.05 -0.13 -0.04 -0.14 -0.04 -0.13 -0.03 -0.14 -0.04 -0.14 -0.03 -0.14 -0.03 -0.14 -0.02 -0.14 -0.02 -0.14 -0.02 -0.15 -0.02 -0.15 -0.01 -0.15 -0.01 -0.15 -0.01 -0.15 0 -0.16 0 0 0zm-37.04 -8.44l37.04 0 0 8.44 -37.04 0 -4.21 -4.22 4.21 -4.22zm0 8.44c-2.33,0 -4.21,-1.89 -4.21,-4.22 0,-2.33 1.88,-4.22 4.21,-4.22l0 8.44zm-4.21 58.97l0 -63.19 8.43 0 0 63.19 -4.22 4.21 -4.21 -4.21zm8.43 0c0,2.32 -1.89,4.21 -4.22,4.21 -2.33,0 -4.21,-1.89 -4.21,-4.21l8.43 0zm132.16 -29.06l0 -142.59 8.43 0 0 142.59 0 0 -8.43 0zm9.52 10.07l-8.21 1.9 0 0 -0.08 -0.36 -0.08 -0.36 -0.08 -0.35 -0.07 -0.37 -0.07 -0.36 -0.07 -0.36 -0.06 -0.36 -0.07 -0.37 -0.06 -0.37 -0.05 -0.36 -0.06 -0.37 -0.05 -0.37 -0.05 -0.37 -0.05 -0.37 -0.04 -0.37 -0.05 -0.38 -0.04 -0.38 -0.03 -0.37 -0.04 -0.37 -0.03 -0.38 -0.03 -0.38 -0.02 -0.38 -0.03 -0.39 -0.02 -0.38 -0.02 -0.38 -0.02 -0.38 -0.01 -0.38 -0.01 -0.39 -0.01 -0.39 -0.01 -0.39 0 -0.39 0 -0.39 8.43 0 0 0.34 0 0.33 0.01 0.34 0.01 0.33 0.01 0.33 0.01 0.33 0.01 0.32 0.02 0.34 0.02 0.32 0.02 0.32 0.02 0.32 0.02 0.32 0.03 0.32 0.03 0.31 0.03 0.33 0.03 0.31 0.04 0.31 0.04 0.31 0.04 0.31 0.04 0.32 0.04 0.31 0.05 0.3 0.05 0.31 0.05 0.3 0.05 0.3 0.05 0.3 0.06 0.31 0.06 0.3 0.06 0.29 0.06 0.3 0.07 0.3 0.06 0.29 0 0zm2.97 8.14l-7.41 4.02 0 0 -0.15 -0.29 -0.16 -0.29 -0.14 -0.29 -0.15 -0.3 -0.15 -0.29 -0.14 -0.3 -0.14 -0.3 -0.13 -0.3 -0.14 -0.31 -0.13 -0.31 -0.13 -0.3 -0.13 -0.31 -0.12 -0.31 -0.13 -0.33 -0.12 -0.31 -0.12 -0.31 -0.11 -0.33 -0.12 -0.33 -0.11 -0.32 -0.11 -0.33 -0.11 -0.33 -0.1 -0.33 -0.1 -0.34 -0.1 -0.33 -0.1 -0.34 -0.1 -0.34 -0.09 -0.35 -0.09 -0.34 -0.09 -0.34 -0.09 -0.35 -0.09 -0.35 -0.08 -0.36 8.21 -1.9 0.07 0.29 0.07 0.3 0.08 0.29 0.07 0.28 0.08 0.29 0.07 0.28 0.08 0.27 0.08 0.28 0.08 0.28 0.09 0.27 0.08 0.27 0.09 0.26 0.09 0.27 0.09 0.27 0.09 0.25 0.09 0.25 0.09 0.26 0.1 0.25 0.09 0.24 0.1 0.25 0.1 0.24 0.1 0.24 0.11 0.24 0.1 0.23 0.1 0.24 0.11 0.23 0.11 0.23 0.11 0.22 0.11 0.22 0.11 0.22 0.12 0.22 0.11 0.21 0 0zm4.17 5.09l-5.17 6.67 0 0 -0.24 -0.19 -0.24 -0.2 -0.24 -0.2 -0.23 -0.2 -0.23 -0.19 -0.23 -0.22 -0.23 -0.21 -0.22 -0.22 -0.22 -0.21 -0.23 -0.23 -0.21 -0.22 -0.21 -0.23 -0.21 -0.24 -0.21 -0.23 -0.2 -0.24 -0.2 -0.23 -0.2 -0.25 -0.2 -0.25 -0.19 -0.25 -0.19 -0.26 -0.19 -0.25 -0.19 -0.26 -0.18 -0.26 -0.18 -0.27 -0.18 -0.27 -0.17 -0.27 -0.17 -0.28 -0.17 -0.27 -0.17 -0.29 -0.16 -0.28 -0.16 -0.28 -0.16 -0.29 7.41 -4.02 0.11 0.21 0.12 0.21 0.12 0.2 0.11 0.19 0.12 0.2 0.12 0.19 0.12 0.18 0.12 0.19 0.12 0.18 0.13 0.18 0.12 0.17 0.13 0.17 0.13 0.17 0.12 0.16 0.13 0.17 0.13 0.16 0.13 0.15 0.13 0.16 0.14 0.15 0.13 0.15 0.14 0.14 0.13 0.15 0.13 0.13 0.15 0.14 0.14 0.14 0.13 0.12 0.14 0.13 0.15 0.13 0.14 0.12 0.14 0.12 0.15 0.12 0.15 0.11 0 0zm4.63 1.54l0 8.43 0 0 -0.33 0 -0.34 -0.01 -0.33 -0.02 -0.33 -0.02 -0.33 -0.03 -0.32 -0.03 -0.33 -0.04 -0.33 -0.05 -0.32 -0.06 -0.33 -0.06 -0.32 -0.06 -0.32 -0.08 -0.32 -0.08 -0.31 -0.09 -0.31 -0.09 -0.32 -0.1 -0.31 -0.11 -0.31 -0.11 -0.3 -0.12 -0.3 -0.13 -0.3 -0.13 -0.3 -0.15 -0.3 -0.15 -0.28 -0.15 -0.29 -0.15 -0.28 -0.17 -0.28 -0.17 -0.28 -0.17 -0.28 -0.19 -0.27 -0.19 -0.26 -0.19 -0.27 -0.2 5.17 -6.67 0.12 0.1 0.13 0.1 0.13 0.09 0.13 0.08 0.13 0.08 0.13 0.08 0.14 0.08 0.13 0.07 0.14 0.08 0.13 0.06 0.13 0.06 0.13 0.06 0.14 0.06 0.14 0.06 0.13 0.05 0.14 0.04 0.14 0.05 0.15 0.04 0.14 0.04 0.14 0.04 0.15 0.04 0.15 0.03 0.16 0.03 0.15 0.02 0.16 0.02 0.16 0.02 0.16 0.02 0.16 0.02 0.17 0.01 0.17 0.01 0.17 0 0.18 0 0 0zm20.68 8.43l-20.68 0 0 -8.43 20.68 0 0 0 0 8.43zm4.39 -9.97l5.17 6.67 0 0 -0.26 0.2 -0.27 0.19 -0.26 0.18 -0.27 0.18 -0.27 0.18 -0.28 0.17 -0.27 0.16 -0.29 0.16 -0.27 0.15 -0.29 0.15 -0.29 0.14 -0.29 0.13 -0.3 0.13 -0.3 0.12 -0.3 0.11 -0.3 0.11 -0.3 0.11 -0.31 0.09 -0.31 0.09 -0.31 0.08 -0.31 0.08 -0.31 0.07 -0.32 0.06 -0.31 0.05 -0.32 0.05 -0.32 0.04 -0.32 0.04 -0.32 0.03 -0.32 0.02 -0.32 0.02 -0.33 0.01 -0.32 0 0 -8.43 0.16 0 0.15 0 0.15 -0.01 0.15 -0.01 0.15 -0.02 0.15 -0.01 0.14 -0.02 0.14 -0.02 0.15 -0.03 0.13 -0.03 0.14 -0.03 0.14 -0.03 0.14 -0.04 0.13 -0.03 0.14 -0.05 0.13 -0.04 0.13 -0.05 0.13 -0.05 0.13 -0.05 0.13 -0.06 0.14 -0.06 0.12 -0.06 0.13 -0.07 0.14 -0.07 0.13 -0.07 0.13 -0.08 0.13 -0.08 0.13 -0.09 0.14 -0.09 0.13 -0.09 0.13 -0.1 0.13 -0.1 0 0zm4.17 -5.08l7.42 4.01 -0.01 0 -0.15 0.29 -0.17 0.29 -0.16 0.28 -0.17 0.28 -0.16 0.27 -0.18 0.28 -0.18 0.28 -0.17 0.26 -0.18 0.27 -0.18 0.26 -0.19 0.26 -0.19 0.25 -0.19 0.26 -0.19 0.25 -0.2 0.25 -0.2 0.25 -0.2 0.23 -0.2 0.24 -0.21 0.24 -0.21 0.23 -0.21 0.23 -0.21 0.22 -0.22 0.22 -0.23 0.23 -0.22 0.21 -0.23 0.21 -0.23 0.21 -0.22 0.2 -0.25 0.21 -0.24 0.2 -0.23 0.19 -0.24 0.19 -5.17 -6.67 0.15 -0.11 0.15 -0.13 0.14 -0.11 0.14 -0.12 0.15 -0.13 0.14 -0.13 0.14 -0.13 0.14 -0.13 0.13 -0.14 0.14 -0.13 0.14 -0.15 0.13 -0.14 0.14 -0.15 0.13 -0.15 0.13 -0.16 0.13 -0.15 0.13 -0.16 0.13 -0.17 0.13 -0.16 0.12 -0.17 0.13 -0.17 0.12 -0.17 0.13 -0.18 0.12 -0.19 0.13 -0.18 0.11 -0.18 0.12 -0.19 0.12 -0.2 0.12 -0.2 0.12 -0.2 0.11 -0.2 0.11 -0.21 0 0.01zm2.97 -8.15l8.21 1.9 0 0 -0.08 0.35 -0.09 0.36 -0.09 0.35 -0.08 0.34 -0.1 0.34 -0.09 0.35 -0.1 0.34 -0.09 0.34 -0.1 0.33 -0.11 0.34 -0.1 0.33 -0.11 0.33 -0.11 0.32 -0.11 0.34 -0.11 0.32 -0.12 0.32 -0.12 0.33 -0.12 0.31 -0.12 0.31 -0.12 0.31 -0.13 0.32 -0.14 0.31 -0.13 0.31 -0.13 0.29 -0.14 0.31 -0.14 0.3 -0.14 0.3 -0.14 0.29 -0.15 0.3 -0.15 0.29 -0.15 0.29 -0.15 0.29 -7.42 -4.01 0.12 -0.22 0.11 -0.21 0.11 -0.22 0.11 -0.23 0.11 -0.22 0.11 -0.23 0.1 -0.23 0.11 -0.23 0.11 -0.24 0.1 -0.24 0.1 -0.24 0.1 -0.23 0.09 -0.25 0.1 -0.26 0.1 -0.25 0.09 -0.24 0.09 -0.26 0.1 -0.26 0.08 -0.26 0.09 -0.26 0.09 -0.28 0.09 -0.26 0.08 -0.26 0.08 -0.29 0.08 -0.28 0.08 -0.27 0.07 -0.28 0.08 -0.29 0.08 -0.28 0.07 -0.29 0.07 -0.29 0.07 -0.3 0 0zm1.09 -10.07l8.43 0 0 0 0 0.39 0 0.39 -0.01 0.39 -0.01 0.39 -0.01 0.39 -0.01 0.38 -0.02 0.38 -0.02 0.39 -0.02 0.38 -0.02 0.37 -0.03 0.38 -0.03 0.39 -0.03 0.38 -0.04 0.37 -0.03 0.38 -0.04 0.37 -0.05 0.38 -0.04 0.36 -0.05 0.38 -0.05 0.37 -0.05 0.37 -0.06 0.37 -0.05 0.36 -0.06 0.37 -0.07 0.37 -0.06 0.36 -0.07 0.36 -0.07 0.36 -0.07 0.37 -0.08 0.35 -0.08 0.36 -0.08 0.36 -8.21 -1.9 0.06 -0.29 0.07 -0.3 0.06 -0.3 0.06 -0.29 0.06 -0.3 0.06 -0.31 0.05 -0.3 0.05 -0.3 0.05 -0.3 0.05 -0.31 0.05 -0.31 0.04 -0.31 0.04 -0.3 0.04 -0.31 0.04 -0.32 0.04 -0.31 0.03 -0.32 0.03 -0.32 0.03 -0.31 0.03 -0.32 0.02 -0.32 0.02 -0.32 0.02 -0.33 0.02 -0.32 0.02 -0.33 0.01 -0.32 0.01 -0.33 0.02 -0.33 0 -0.33 0.01 -0.34 0 -0.33 0 -0.34 0 0zm8.43 -142.59l0 142.59 -8.43 0 0 -142.59 4.22 -4.22 4.21 4.22zm-8.43 0c0,-2.33 1.89,-4.22 4.22,-4.22 2.33,0 4.21,1.89 4.21,4.22l-8.43 0zm40.29 4.21l-36.07 0 0 -8.43 36.07 0 4.21 4.22 -4.21 4.21zm0 -8.43c2.33,0 4.21,1.89 4.21,4.22 0,2.33 -1.88,4.21 -4.21,4.21l0 -8.43zm-4.22 146.81l0 -142.59 8.43 0 0 142.59 0 0 -8.43 0zm5.64 21.94l-8.13 -2.23 0 0.01 0.15 -0.57 0.15 -0.58 0.14 -0.57 0.14 -0.58 0.14 -0.58 0.13 -0.58 0.12 -0.59 0.12 -0.6 0.11 -0.59 0.11 -0.59 0.11 -0.6 0.1 -0.6 0.09 -0.61 0.09 -0.61 0.09 -0.61 0.08 -0.61 0.07 -0.62 0.07 -0.62 0.07 -0.62 0.06 -0.63 0.06 -0.63 0.05 -0.63 0.05 -0.63 0.04 -0.65 0.03 -0.64 0.04 -0.64 0.02 -0.65 0.03 -0.65 0.01 -0.65 0.01 -0.66 0.01 -0.66 0 -0.67 8.43 0 0 0.73 -0.01 0.73 -0.01 0.71 -0.02 0.72 -0.02 0.72 -0.03 0.71 -0.04 0.71 -0.04 0.71 -0.04 0.7 -0.06 0.71 -0.05 0.7 -0.07 0.7 -0.06 0.69 -0.08 0.69 -0.07 0.69 -0.09 0.69 -0.09 0.68 -0.09 0.68 -0.1 0.68 -0.11 0.68 -0.11 0.68 -0.12 0.66 -0.12 0.67 -0.13 0.67 -0.13 0.66 -0.14 0.66 -0.15 0.66 -0.15 0.65 -0.16 0.66 -0.16 0.64 -0.16 0.65 -0.18 0.65 0 0zm-8.02 18.06l-7 -4.7 0 0 0.28 -0.41 0.26 -0.41 0.27 -0.42 0.26 -0.43 0.26 -0.43 0.25 -0.43 0.25 -0.44 0.25 -0.44 0.24 -0.44 0.24 -0.46 0.23 -0.46 0.24 -0.46 0.22 -0.47 0.23 -0.47 0.22 -0.48 0.22 -0.49 0.21 -0.48 0.21 -0.5 0.21 -0.5 0.2 -0.5 0.2 -0.51 0.2 -0.52 0.19 -0.51 0.18 -0.53 0.19 -0.53 0.18 -0.54 0.18 -0.54 0.17 -0.55 0.17 -0.55 0.16 -0.55 0.16 -0.57 0.16 -0.57 8.13 2.23 -0.17 0.63 -0.19 0.64 -0.18 0.63 -0.19 0.62 -0.2 0.62 -0.2 0.61 -0.21 0.61 -0.21 0.61 -0.21 0.6 -0.22 0.6 -0.22 0.59 -0.23 0.58 -0.24 0.59 -0.24 0.57 -0.24 0.58 -0.25 0.56 -0.25 0.56 -0.26 0.56 -0.26 0.56 -0.27 0.54 -0.27 0.55 -0.28 0.53 -0.28 0.54 -0.28 0.53 -0.3 0.53 -0.29 0.51 -0.31 0.52 -0.3 0.51 -0.31 0.5 -0.32 0.5 -0.32 0.5 -0.32 0.49 0 -0.01zm-12.99 12.52l-4.34 -7.23 0 0 0.37 -0.22 0.37 -0.24 0.37 -0.24 0.37 -0.24 0.36 -0.25 0.35 -0.25 0.36 -0.27 0.35 -0.26 0.34 -0.27 0.35 -0.28 0.34 -0.28 0.34 -0.28 0.33 -0.3 0.33 -0.29 0.33 -0.31 0.32 -0.31 0.32 -0.31 0.32 -0.32 0.32 -0.32 0.31 -0.33 0.3 -0.34 0.31 -0.35 0.3 -0.34 0.3 -0.35 0.3 -0.36 0.29 -0.37 0.29 -0.37 0.28 -0.38 0.28 -0.38 0.29 -0.39 0.27 -0.39 0.27 -0.4 7 4.7 -0.33 0.49 -0.34 0.48 -0.34 0.48 -0.35 0.47 -0.35 0.46 -0.36 0.45 -0.36 0.46 -0.36 0.44 -0.37 0.44 -0.38 0.44 -0.38 0.42 -0.38 0.42 -0.39 0.41 -0.4 0.41 -0.4 0.41 -0.4 0.39 -0.41 0.39 -0.41 0.38 -0.42 0.38 -0.43 0.37 -0.42 0.36 -0.44 0.36 -0.43 0.35 -0.45 0.34 -0.44 0.34 -0.45 0.33 -0.46 0.33 -0.46 0.32 -0.46 0.31 -0.47 0.3 -0.47 0.3 -0.48 0.29 0 0zm-17.69 4.72l0 -8.43 0 0 0.48 0 0.47 -0.02 0.47 -0.01 0.47 -0.03 0.45 -0.03 0.46 -0.04 0.45 -0.04 0.45 -0.06 0.44 -0.06 0.44 -0.06 0.43 -0.07 0.44 -0.08 0.42 -0.09 0.43 -0.09 0.42 -0.1 0.41 -0.11 0.42 -0.11 0.4 -0.12 0.41 -0.13 0.4 -0.13 0.4 -0.14 0.39 -0.15 0.4 -0.15 0.39 -0.17 0.38 -0.16 0.39 -0.18 0.38 -0.18 0.37 -0.18 0.38 -0.2 0.37 -0.2 0.37 -0.21 0.37 -0.22 4.34 7.23 -0.5 0.29 -0.49 0.28 -0.51 0.28 -0.5 0.26 -0.52 0.26 -0.51 0.24 -0.52 0.24 -0.53 0.22 -0.52 0.22 -0.53 0.21 -0.54 0.2 -0.54 0.18 -0.54 0.18 -0.54 0.18 -0.55 0.16 -0.56 0.15 -0.55 0.14 -0.57 0.13 -0.56 0.13 -0.57 0.11 -0.57 0.11 -0.57 0.09 -0.58 0.09 -0.57 0.08 -0.58 0.07 -0.59 0.06 -0.59 0.05 -0.59 0.04 -0.6 0.03 -0.59 0.02 -0.6 0.01 -0.61 0.01 0 0zm-51.94 -8.43l51.94 0 0 8.43 -51.94 0 0 0 0 -8.43zm-17.68 3.71l4.34 -7.23 0 0.01 0.36 0.21 0.38 0.21 0.37 0.2 0.37 0.2 0.37 0.18 0.39 0.18 0.38 0.18 0.39 0.17 0.39 0.16 0.39 0.15 0.4 0.15 0.39 0.14 0.41 0.13 0.4 0.13 0.41 0.12 0.41 0.11 0.42 0.11 0.42 0.1 0.42 0.09 0.43 0.09 0.43 0.08 0.43 0.07 0.44 0.06 0.45 0.06 0.45 0.06 0.45 0.04 0.45 0.04 0.46 0.03 0.46 0.03 0.47 0.01 0.47 0.02 0.48 0 0 8.43 -0.61 -0.01 -0.6 -0.01 -0.59 -0.02 -0.59 -0.03 -0.6 -0.04 -0.59 -0.05 -0.58 -0.06 -0.58 -0.07 -0.58 -0.08 -0.58 -0.08 -0.57 -0.1 -0.57 -0.11 -0.57 -0.11 -0.56 -0.13 -0.56 -0.13 -0.56 -0.14 -0.55 -0.15 -0.56 -0.16 -0.54 -0.18 -0.54 -0.18 -0.54 -0.18 -0.54 -0.2 -0.53 -0.21 -0.52 -0.22 -0.53 -0.22 -0.52 -0.24 -0.51 -0.24 -0.51 -0.26 -0.51 -0.26 -0.51 -0.28 -0.49 -0.28 -0.49 -0.29 0 0zm-12.99 -12.52l6.99 -4.7 0 0 0.27 0.4 0.28 0.39 0.28 0.39 0.28 0.38 0.29 0.38 0.29 0.37 0.29 0.37 0.29 0.35 0.3 0.36 0.3 0.35 0.31 0.34 0.31 0.33 0.31 0.34 0.31 0.32 0.32 0.32 0.32 0.31 0.33 0.31 0.32 0.3 0.33 0.3 0.34 0.3 0.33 0.28 0.34 0.28 0.35 0.28 0.34 0.27 0.35 0.26 0.36 0.27 0.36 0.25 0.35 0.25 0.37 0.24 0.37 0.24 0.37 0.24 0.38 0.22 -4.34 7.23 -0.48 -0.29 -0.48 -0.3 -0.46 -0.3 -0.46 -0.31 -0.47 -0.32 -0.46 -0.33 -0.44 -0.33 -0.45 -0.34 -0.44 -0.34 -0.44 -0.35 -0.43 -0.36 -0.43 -0.36 -0.42 -0.37 -0.42 -0.38 -0.42 -0.38 -0.4 -0.39 -0.41 -0.39 -0.4 -0.41 -0.39 -0.41 -0.39 -0.41 -0.39 -0.42 -0.38 -0.43 -0.37 -0.43 -0.37 -0.44 -0.37 -0.44 -0.36 -0.46 -0.36 -0.45 -0.35 -0.46 -0.34 -0.47 -0.34 -0.48 -0.34 -0.48 -0.33 -0.48 0 -0.01zm-7.92 -18.11l8.16 -2.13 0 0 0.15 0.57 0.15 0.56 0.16 0.55 0.16 0.56 0.17 0.54 0.17 0.54 0.17 0.54 0.18 0.52 0.18 0.53 0.19 0.52 0.19 0.51 0.19 0.51 0.2 0.5 0.2 0.5 0.21 0.49 0.21 0.49 0.21 0.48 0.22 0.48 0.22 0.47 0.22 0.46 0.23 0.47 0.24 0.46 0.23 0.45 0.24 0.44 0.24 0.44 0.25 0.44 0.25 0.43 0.26 0.43 0.26 0.42 0.26 0.42 0.27 0.41 0.27 0.41 -6.99 4.7 -0.33 -0.49 -0.32 -0.49 -0.32 -0.5 -0.31 -0.51 -0.3 -0.51 -0.3 -0.52 -0.3 -0.52 -0.29 -0.52 -0.29 -0.53 -0.28 -0.54 -0.27 -0.54 -0.27 -0.54 -0.27 -0.55 -0.26 -0.56 -0.25 -0.56 -0.25 -0.56 -0.24 -0.57 -0.24 -0.58 -0.24 -0.57 -0.23 -0.59 -0.22 -0.58 -0.22 -0.6 -0.22 -0.59 -0.21 -0.61 -0.2 -0.6 -0.2 -0.61 -0.19 -0.62 -0.19 -0.62 -0.19 -0.63 -0.18 -0.62 -0.17 -0.64 -0.17 -0.64 0 0zm-2.66 -21.89l8.43 0 0 0 0 0.67 0.01 0.66 0.01 0.66 0.01 0.66 0.02 0.65 0.03 0.65 0.03 0.64 0.04 0.64 0.04 0.65 0.04 0.63 0.05 0.64 0.06 0.63 0.05 0.63 0.07 0.62 0.06 0.62 0.08 0.62 0.07 0.62 0.09 0.61 0.08 0.61 0.09 0.61 0.1 0.6 0.1 0.6 0.1 0.6 0.11 0.59 0.12 0.59 0.12 0.59 0.12 0.59 0.13 0.58 0.13 0.58 0.14 0.58 0.14 0.57 0.15 0.57 -8.16 2.13 -0.17 -0.64 -0.16 -0.65 -0.15 -0.65 -0.15 -0.65 -0.14 -0.65 -0.14 -0.66 -0.13 -0.65 -0.13 -0.67 -0.12 -0.66 -0.12 -0.67 -0.11 -0.66 -0.11 -0.68 -0.1 -0.68 -0.09 -0.67 -0.09 -0.68 -0.09 -0.68 -0.08 -0.69 -0.08 -0.69 -0.07 -0.69 -0.06 -0.69 -0.06 -0.7 -0.06 -0.69 -0.04 -0.71 -0.05 -0.7 -0.04 -0.71 -0.03 -0.71 -0.03 -0.71 -0.02 -0.71 -0.02 -0.72 -0.01 -0.72 -0.01 -0.72 0 -0.73 0 0zm8.43 -142.59l0 142.59 -8.43 0 0 -142.59 4.21 -4.22 4.22 4.22zm-8.43 0c0,-2.33 1.88,-4.22 4.21,-4.22 2.33,0 4.22,1.89 4.22,4.22l-8.43 0zm39.8 4.21l-35.59 0 0 -8.43 35.59 0 4.22 4.22 -4.22 4.21zm0 -8.43c2.33,0 4.22,1.89 4.22,4.22 0,2.33 -1.89,4.21 -4.22,4.21l0 -8.43zm223.09 14.25l-6.5 5.36 0 0 -0.58 -0.68 -0.59 -0.65 -0.62 -0.63 -0.63 -0.61 -0.66 -0.59 -0.67 -0.57 -0.7 -0.54 -0.72 -0.53 -0.74 -0.51 -0.77 -0.48 -0.78 -0.47 -0.81 -0.44 -0.84 -0.42 -0.86 -0.41 -0.88 -0.39 -0.91 -0.36 -0.93 -0.34 -0.96 -0.33 -0.99 -0.3 -1.01 -0.28 -1.03 -0.26 -1.07 -0.24 -1.08 -0.21 -1.12 -0.2 -1.14 -0.17 -1.17 -0.15 -1.19 -0.13 -1.22 -0.1 -1.25 -0.08 -1.27 -0.06 -1.3 -0.04 -1.33 -0.01 0 -8.43 1.48 0.02 1.45 0.04 1.44 0.06 1.41 0.09 1.39 0.12 1.37 0.15 1.36 0.17 1.32 0.2 1.31 0.23 1.29 0.26 1.26 0.28 1.25 0.31 1.22 0.34 1.2 0.37 1.18 0.4 1.16 0.42 1.13 0.46 1.11 0.48 1.09 0.51 1.07 0.55 1.04 0.57 1.02 0.6 0.99 0.64 0.97 0.66 0.94 0.69 0.92 0.71 0.9 0.76 0.86 0.77 0.84 0.81 0.81 0.83 0.79 0.86 0.75 0.89 0 0zm11.43 44.2l-8.43 0 0 0 -0.01 -1.74 -0.03 -1.7 -0.05 -1.67 -0.07 -1.64 -0.09 -1.6 -0.11 -1.57 -0.13 -1.53 -0.14 -1.51 -0.17 -1.47 -0.18 -1.43 -0.21 -1.4 -0.22 -1.37 -0.24 -1.33 -0.26 -1.3 -0.28 -1.27 -0.3 -1.23 -0.31 -1.19 -0.34 -1.16 -0.35 -1.13 -0.36 -1.1 -0.39 -1.06 -0.4 -1.02 -0.41 -0.99 -0.44 -0.96 -0.45 -0.92 -0.46 -0.9 -0.48 -0.85 -0.5 -0.82 -0.51 -0.8 -0.52 -0.76 -0.54 -0.72 -0.55 -0.7 6.5 -5.36 0.74 0.92 0.71 0.96 0.68 0.99 0.65 1.01 0.63 1.05 0.6 1.08 0.58 1.11 0.55 1.13 0.53 1.17 0.5 1.19 0.48 1.22 0.46 1.26 0.43 1.28 0.4 1.31 0.39 1.34 0.35 1.36 0.34 1.4 0.31 1.42 0.3 1.46 0.27 1.48 0.24 1.51 0.23 1.54 0.2 1.57 0.18 1.6 0.16 1.62 0.14 1.66 0.12 1.69 0.09 1.71 0.07 1.75 0.06 1.77 0.03 1.81 0.01 1.83 0 0zm-5.83 27.85l-7.6 -3.65 0 0 0.31 -0.65 0.29 -0.65 0.29 -0.66 0.27 -0.67 0.27 -0.67 0.26 -0.68 0.24 -0.69 0.24 -0.69 0.23 -0.7 0.22 -0.71 0.21 -0.71 0.2 -0.73 0.19 -0.73 0.18 -0.73 0.17 -0.75 0.16 -0.75 0.16 -0.76 0.14 -0.76 0.13 -0.78 0.12 -0.78 0.12 -0.79 0.1 -0.79 0.1 -0.81 0.08 -0.81 0.07 -0.81 0.07 -0.83 0.05 -0.83 0.05 -0.84 0.03 -0.85 0.03 -0.86 0.01 -0.86 0.01 -0.87 8.43 0 -0.01 0.97 -0.01 0.96 -0.03 0.96 -0.04 0.95 -0.05 0.94 -0.06 0.93 -0.08 0.94 -0.08 0.92 -0.1 0.92 -0.1 0.91 -0.12 0.91 -0.13 0.9 -0.14 0.89 -0.15 0.89 -0.17 0.88 -0.17 0.88 -0.19 0.86 -0.2 0.87 -0.21 0.85 -0.22 0.85 -0.23 0.85 -0.25 0.83 -0.26 0.83 -0.26 0.82 -0.28 0.82 -0.3 0.81 -0.3 0.8 -0.31 0.8 -0.33 0.79 -0.34 0.78 -0.35 0.77 -0.36 0.77 0 0zm-21.48 11.04l-2.87 7.92 -0.15 -7.86 0.78 -0.33 0.76 -0.33 0.74 -0.35 0.73 -0.35 0.71 -0.36 0.69 -0.37 0.68 -0.38 0.66 -0.38 0.64 -0.4 0.63 -0.4 0.61 -0.41 0.59 -0.42 0.58 -0.43 0.56 -0.44 0.54 -0.45 0.53 -0.45 0.52 -0.47 0.49 -0.47 0.49 -0.48 0.47 -0.49 0.45 -0.5 0.44 -0.5 0.43 -0.52 0.4 -0.52 0.4 -0.54 0.38 -0.54 0.37 -0.56 0.35 -0.56 0.34 -0.57 0.33 -0.58 0.31 -0.6 0.3 -0.6 7.6 3.65 -0.39 0.79 -0.41 0.78 -0.43 0.77 -0.45 0.76 -0.47 0.74 -0.49 0.73 -0.5 0.72 -0.53 0.71 -0.54 0.69 -0.56 0.68 -0.58 0.67 -0.59 0.66 -0.62 0.64 -0.63 0.62 -0.64 0.61 -0.67 0.6 -0.68 0.59 -0.7 0.57 -0.71 0.56 -0.73 0.54 -0.75 0.53 -0.77 0.52 -0.77 0.5 -0.8 0.49 -0.81 0.48 -0.83 0.46 -0.84 0.45 -0.86 0.44 -0.87 0.42 -0.89 0.41 -0.9 0.39 -0.92 0.39 -0.15 -7.87zm0.15 7.87c-2.16,0.87 -4.62,-0.17 -5.49,-2.32 -0.88,-2.16 0.16,-4.62 2.32,-5.49l3.17 7.81zm11.34 -2.41l-4.45 7.17 0.01 0 -0.27 -0.17 -0.27 -0.16 -0.27 -0.16 -0.28 -0.16 -0.28 -0.17 -0.28 -0.15 -0.29 -0.16 -0.28 -0.16 -0.29 -0.15 -0.3 -0.16 -0.29 -0.15 -0.3 -0.15 -0.3 -0.15 -0.29 -0.15 -0.32 -0.15 -0.31 -0.15 -0.3 -0.15 -0.32 -0.14 -0.32 -0.15 -0.31 -0.14 -0.33 -0.14 -0.33 -0.14 -0.32 -0.14 -0.33 -0.14 -0.34 -0.14 -0.33 -0.14 -0.33 -0.13 -0.35 -0.13 -0.35 -0.14 -0.34 -0.13 -0.35 -0.13 -0.35 -0.13 2.87 -7.92 0.4 0.14 0.39 0.15 0.39 0.15 0.39 0.15 0.38 0.15 0.39 0.15 0.39 0.16 0.37 0.15 0.38 0.16 0.38 0.16 0.37 0.16 0.36 0.16 0.37 0.17 0.37 0.17 0.36 0.16 0.37 0.18 0.35 0.17 0.35 0.17 0.36 0.17 0.35 0.18 0.35 0.18 0.35 0.18 0.34 0.18 0.34 0.18 0.34 0.19 0.33 0.18 0.34 0.2 0.33 0.19 0.32 0.18 0.33 0.2 0.32 0.19 0.33 0.2 0 0zm9.09 8.33l-6.76 5.04 0 -0.01 -0.18 -0.23 -0.17 -0.23 -0.18 -0.22 -0.19 -0.23 -0.18 -0.22 -0.18 -0.21 -0.19 -0.22 -0.19 -0.21 -0.2 -0.22 -0.19 -0.21 -0.19 -0.2 -0.21 -0.2 -0.2 -0.21 -0.21 -0.2 -0.2 -0.19 -0.21 -0.2 -0.22 -0.19 -0.21 -0.19 -0.21 -0.18 -0.23 -0.19 -0.22 -0.19 -0.22 -0.17 -0.23 -0.18 -0.23 -0.18 -0.23 -0.17 -0.24 -0.17 -0.24 -0.17 -0.24 -0.17 -0.24 -0.16 -0.25 -0.17 -0.24 -0.15 -0.26 -0.16 4.45 -7.17 0.33 0.21 0.33 0.21 0.32 0.22 0.33 0.22 0.32 0.22 0.31 0.22 0.32 0.23 0.31 0.24 0.31 0.23 0.3 0.24 0.31 0.24 0.29 0.25 0.3 0.24 0.29 0.26 0.29 0.26 0.29 0.25 0.28 0.27 0.28 0.26 0.28 0.27 0.27 0.27 0.27 0.27 0.27 0.29 0.27 0.28 0.26 0.28 0.25 0.29 0.26 0.29 0.25 0.3 0.25 0.3 0.24 0.3 0.24 0.3 0.24 0.31 0.23 0.31 0 0zm5.71 11.72l-8.08 2.41 0 0 -0.1 -0.34 -0.11 -0.34 -0.1 -0.33 -0.11 -0.32 -0.12 -0.33 -0.11 -0.32 -0.12 -0.32 -0.11 -0.31 -0.13 -0.31 -0.12 -0.31 -0.13 -0.3 -0.12 -0.3 -0.13 -0.29 -0.13 -0.3 -0.14 -0.28 -0.14 -0.29 -0.13 -0.28 -0.15 -0.28 -0.14 -0.28 -0.14 -0.26 -0.15 -0.28 -0.15 -0.26 -0.15 -0.26 -0.16 -0.26 -0.15 -0.26 -0.16 -0.25 -0.16 -0.24 -0.16 -0.24 -0.16 -0.25 -0.17 -0.24 -0.17 -0.23 -0.17 -0.23 6.76 -5.04 0.23 0.32 0.23 0.32 0.22 0.32 0.23 0.32 0.22 0.33 0.21 0.34 0.22 0.34 0.2 0.34 0.2 0.33 0.21 0.35 0.19 0.36 0.2 0.34 0.19 0.37 0.18 0.35 0.19 0.36 0.18 0.37 0.17 0.36 0.18 0.38 0.17 0.38 0.16 0.37 0.17 0.39 0.16 0.38 0.15 0.38 0.15 0.39 0.15 0.4 0.15 0.39 0.14 0.4 0.14 0.41 0.13 0.4 0.14 0.41 0.12 0.41 0.13 0.41 0 0zm1.98 15.49l-8.43 0 0 0 0 -0.48 -0.01 -0.48 -0.01 -0.47 -0.01 -0.47 -0.01 -0.47 -0.02 -0.45 -0.02 -0.47 -0.03 -0.44 -0.03 -0.44 -0.03 -0.45 -0.03 -0.44 -0.04 -0.42 -0.04 -0.43 -0.04 -0.42 -0.05 -0.42 -0.05 -0.41 -0.05 -0.4 -0.06 -0.4 -0.06 -0.4 -0.06 -0.4 -0.07 -0.38 -0.06 -0.39 -0.07 -0.37 -0.08 -0.38 -0.08 -0.36 -0.08 -0.37 -0.08 -0.35 -0.09 -0.35 -0.08 -0.35 -0.1 -0.35 -0.09 -0.33 -0.1 -0.34 8.08 -2.41 0.13 0.43 0.11 0.43 0.12 0.44 0.11 0.43 0.11 0.44 0.1 0.45 0.1 0.45 0.1 0.45 0.09 0.46 0.09 0.46 0.08 0.47 0.08 0.46 0.07 0.47 0.07 0.47 0.07 0.48 0.07 0.49 0.05 0.48 0.06 0.5 0.05 0.48 0.05 0.5 0.04 0.5 0.04 0.51 0.04 0.5 0.03 0.51 0.03 0.52 0.02 0.52 0.02 0.52 0.02 0.53 0.01 0.53 0.01 0.53 0.01 0.54 0 0.54 0 0zm-8.43 61.49l0 -61.49 8.43 0 0 61.49 -4.22 4.22 -4.21 -4.22zm8.43 0c0,2.33 -1.89,4.22 -4.22,4.22 -2.32,0 -4.21,-1.89 -4.21,-4.22l8.43 0zm-39.81 -4.21l35.59 0 0 8.43 -35.59 0 -4.22 -4.22 4.22 -4.21zm0 8.43c-2.33,0 -4.22,-1.89 -4.22,-4.22 0,-2.32 1.89,-4.21 4.22,-4.21l0 8.43zm4.21 -51.67l0 47.45 -8.43 0 0 -47.45 0 0 8.43 0zm-21.77 -33.07l0 -8.43 0 0 1.37 0.05 1.35 0.14 1.33 0.24 1.29 0.34 1.27 0.44 1.22 0.54 1.17 0.63 1.12 0.73 1.07 0.82 1 0.9 0.94 0.98 0.89 1.05 0.82 1.12 0.77 1.19 0.71 1.26 0.66 1.31 0.61 1.38 0.57 1.45 0.51 1.5 0.48 1.57 0.43 1.63 0.39 1.69 0.35 1.76 0.31 1.82 0.27 1.88 0.23 1.96 0.2 2.02 0.16 2.08 0.12 2.16 0.09 2.22 0.06 2.29 0.01 2.35 -8.43 0 -0.01 -2.23 -0.05 -2.15 -0.08 -2.07 -0.12 -2 -0.15 -1.92 -0.18 -1.84 -0.21 -1.76 -0.24 -1.68 -0.28 -1.61 -0.3 -1.52 -0.33 -1.43 -0.35 -1.36 -0.39 -1.27 -0.41 -1.2 -0.43 -1.1 -0.45 -1.02 -0.47 -0.94 -0.49 -0.86 -0.5 -0.78 -0.51 -0.7 -0.53 -0.62 -0.53 -0.55 -0.53 -0.48 -0.55 -0.42 -0.56 -0.36 -0.57 -0.32 -0.6 -0.26 -0.63 -0.22 -0.65 -0.17 -0.7 -0.12 -0.74 -0.08 -0.8 -0.03 0 0zm-33.42 -8.43l33.42 0 0 8.43 -33.42 0 -4.22 -4.21 4.22 -4.22zm0 8.43c-2.33,0 -4.22,-1.88 -4.22,-4.21 0,-2.33 1.89,-4.22 4.22,-4.22l0 8.43zm-4.22 80.52l0 -84.73 8.43 0 0 84.73 -4.21 4.22 -4.22 -4.22zm8.43 0c0,2.33 -1.88,4.22 -4.21,4.22 -2.33,0 -4.22,-1.89 -4.22,-4.22l8.43 0zm-41.49 -4.21l37.28 0 0 8.43 -37.28 0 -4.21 -4.22 4.21 -4.21zm0 8.43c-2.33,0 -4.21,-1.89 -4.21,-4.22 0,-2.32 1.88,-4.21 4.21,-4.21l0 8.43zm4.22 -199.83l0 195.61 -8.43 0 0 -195.61 4.21 -4.22 4.22 4.22zm-8.43 0c0,-2.33 1.88,-4.22 4.21,-4.22 2.33,0 4.22,1.89 4.22,4.22l-8.43 0zm83.57 4.21l-79.36 0 0 -8.43 79.36 0 0 0 0 8.43zm-7.94 86.67l-34.14 0 0 -8.43 34.14 0 0 0 0 8.43zm9.2 -14.63l7.35 4.13 0 0 -0.35 0.6 -0.35 0.59 -0.37 0.57 -0.38 0.56 -0.39 0.54 -0.41 0.52 -0.41 0.51 -0.43 0.5 -0.44 0.48 -0.45 0.46 -0.46 0.45 -0.48 0.43 -0.48 0.41 -0.5 0.39 -0.52 0.37 -0.52 0.36 -0.54 0.33 -0.55 0.32 -0.56 0.29 -0.56 0.27 -0.58 0.25 -0.59 0.23 -0.6 0.21 -0.6 0.18 -0.61 0.16 -0.62 0.14 -0.61 0.12 -0.63 0.1 -0.64 0.07 -0.63 0.05 -0.64 0.03 -0.65 0.01 0 -8.43 0.37 0 0.37 -0.02 0.35 -0.03 0.34 -0.04 0.33 -0.05 0.33 -0.06 0.32 -0.07 0.31 -0.09 0.31 -0.09 0.29 -0.1 0.29 -0.11 0.29 -0.13 0.29 -0.14 0.28 -0.14 0.27 -0.16 0.28 -0.17 0.27 -0.19 0.27 -0.19 0.27 -0.22 0.27 -0.22 0.27 -0.24 0.26 -0.26 0.27 -0.27 0.26 -0.29 0.26 -0.3 0.26 -0.32 0.26 -0.34 0.26 -0.36 0.25 -0.37 0.25 -0.39 0.25 -0.41 0.25 -0.43 0 0zm4.15 -20.33l8.43 0 0 0 -0.01 0.92 -0.01 0.91 -0.03 0.89 -0.03 0.89 -0.05 0.88 -0.05 0.86 -0.06 0.86 -0.08 0.85 -0.08 0.84 -0.09 0.82 -0.11 0.82 -0.11 0.81 -0.12 0.8 -0.13 0.79 -0.15 0.78 -0.15 0.77 -0.17 0.75 -0.17 0.76 -0.19 0.74 -0.2 0.73 -0.21 0.72 -0.22 0.71 -0.23 0.7 -0.24 0.69 -0.25 0.68 -0.26 0.67 -0.28 0.67 -0.29 0.65 -0.3 0.64 -0.31 0.63 -0.32 0.62 -0.33 0.61 -7.35 -4.13 0.24 -0.44 0.24 -0.46 0.23 -0.47 0.22 -0.48 0.22 -0.49 0.21 -0.5 0.2 -0.52 0.2 -0.53 0.19 -0.54 0.18 -0.56 0.17 -0.56 0.17 -0.58 0.16 -0.59 0.15 -0.61 0.15 -0.61 0.13 -0.63 0.13 -0.64 0.12 -0.65 0.12 -0.67 0.1 -0.68 0.1 -0.69 0.09 -0.71 0.08 -0.71 0.07 -0.73 0.07 -0.74 0.05 -0.76 0.05 -0.76 0.04 -0.78 0.03 -0.79 0.02 -0.8 0.01 -0.82 0.01 -0.83 0 0zm-4.16 -20.96l7.37 -4.08 0 0 0.33 0.62 0.33 0.63 0.31 0.64 0.29 0.66 0.29 0.66 0.28 0.67 0.26 0.69 0.25 0.69 0.24 0.7 0.23 0.72 0.22 0.73 0.21 0.73 0.19 0.75 0.19 0.76 0.18 0.76 0.16 0.78 0.15 0.78 0.15 0.8 0.13 0.82 0.13 0.81 0.11 0.83 0.1 0.84 0.09 0.85 0.09 0.86 0.07 0.87 0.06 0.88 0.06 0.9 0.04 0.9 0.03 0.91 0.03 0.92 0.01 0.94 0.01 0.94 -8.43 0 -0.01 -0.86 -0.01 -0.84 -0.02 -0.83 -0.03 -0.82 -0.04 -0.81 -0.05 -0.79 -0.06 -0.78 -0.06 -0.77 -0.07 -0.76 -0.08 -0.74 -0.09 -0.73 -0.1 -0.71 -0.1 -0.7 -0.12 -0.69 -0.12 -0.67 -0.13 -0.67 -0.14 -0.65 -0.14 -0.63 -0.15 -0.62 -0.17 -0.61 -0.16 -0.6 -0.18 -0.57 -0.18 -0.57 -0.19 -0.56 -0.2 -0.55 -0.2 -0.52 -0.21 -0.52 -0.22 -0.5 -0.22 -0.49 -0.23 -0.48 -0.24 -0.46 -0.24 -0.46 0 0zm-9.19 -6.29l0 -8.43 0 0 0.65 0.01 0.64 0.03 0.64 0.05 0.64 0.08 0.63 0.1 0.62 0.11 0.62 0.15 0.61 0.16 0.6 0.19 0.6 0.21 0.59 0.23 0.58 0.26 0.57 0.28 0.55 0.29 0.55 0.32 0.54 0.34 0.52 0.36 0.52 0.38 0.5 0.4 0.49 0.41 0.47 0.43 0.46 0.46 0.45 0.46 0.44 0.49 0.43 0.5 0.41 0.52 0.4 0.53 0.39 0.55 0.38 0.56 0.37 0.58 0.36 0.6 0.34 0.6 -7.37 4.08 -0.25 -0.43 -0.25 -0.42 -0.25 -0.39 -0.26 -0.38 -0.26 -0.37 -0.26 -0.34 -0.26 -0.33 -0.26 -0.31 -0.26 -0.29 -0.27 -0.28 -0.26 -0.26 -0.27 -0.24 -0.27 -0.23 -0.27 -0.21 -0.27 -0.2 -0.27 -0.19 -0.28 -0.17 -0.28 -0.16 -0.28 -0.16 -0.28 -0.13 -0.29 -0.13 -0.29 -0.11 -0.29 -0.11 -0.3 -0.09 -0.31 -0.08 -0.32 -0.08 -0.32 -0.06 -0.34 -0.05 -0.34 -0.04 -0.35 -0.03 -0.36 -0.02 -0.37 0 0 0zm-34.14 -8.43l34.14 0 0 8.43 -34.14 0 -4.22 -4.22 4.22 -4.21zm0 8.43c-2.33,0 -4.22,-1.89 -4.22,-4.22 0,-2.33 1.89,-4.21 4.22,-4.21l0 8.43zm-4.22 58l0 -62.22 8.43 0 0 62.22 -4.21 4.21 -4.22 -4.21zm8.43 0c0,2.33 -1.88,4.21 -4.21,4.21 -2.33,0 -4.22,-1.88 -4.22,-4.21l8.43 0zm215.37 -62.22l0 -24.45 8.44 0 0 24.45 -4.22 4.22 -4.22 -4.22zm8.44 0c0,2.33 -1.89,4.22 -4.22,4.22 -2.33,0 -4.22,-1.89 -4.22,-4.22l8.44 0zm-69.63 -4.21l65.41 0 0 8.43 -65.41 0 0 0 0 -8.43zm-4.4 9.96l-5.16 -6.66 0 0 0.27 -0.2 0.26 -0.19 0.26 -0.19 0.27 -0.18 0.27 -0.17 0.27 -0.17 0.28 -0.17 0.29 -0.15 0.27 -0.15 0.29 -0.15 0.29 -0.14 0.29 -0.13 0.3 -0.13 0.3 -0.12 0.3 -0.12 0.3 -0.11 0.3 -0.1 0.31 -0.09 0.31 -0.09 0.31 -0.08 0.31 -0.08 0.31 -0.07 0.32 -0.06 0.31 -0.06 0.32 -0.04 0.32 -0.05 0.32 -0.03 0.32 -0.03 0.32 -0.02 0.32 -0.02 0.32 -0.01 0.33 0 0 8.43 -0.16 0 -0.15 0 -0.15 0.01 -0.16 0.01 -0.14 0.01 -0.15 0.02 -0.14 0.02 -0.14 0.02 -0.15 0.03 -0.13 0.02 -0.14 0.03 -0.14 0.04 -0.14 0.03 -0.13 0.04 -0.13 0.04 -0.14 0.05 -0.13 0.05 -0.14 0.05 -0.13 0.05 -0.12 0.06 -0.14 0.06 -0.12 0.06 -0.13 0.07 -0.15 0.07 -0.13 0.07 -0.12 0.08 -0.14 0.08 -0.13 0.09 -0.13 0.08 -0.13 0.1 -0.14 0.1 -0.13 0.1 0 -0.01zm-4.33 5.18l-7.32 -4.19 0 0 0.17 -0.29 0.17 -0.27 0.17 -0.28 0.17 -0.28 0.17 -0.28 0.18 -0.27 0.18 -0.27 0.18 -0.26 0.19 -0.26 0.18 -0.27 0.19 -0.25 0.19 -0.25 0.2 -0.26 0.2 -0.24 0.19 -0.24 0.2 -0.25 0.21 -0.24 0.21 -0.24 0.2 -0.23 0.21 -0.22 0.21 -0.23 0.22 -0.22 0.22 -0.23 0.23 -0.21 0.21 -0.21 0.24 -0.22 0.22 -0.2 0.22 -0.2 0.24 -0.2 0.24 -0.2 0.24 -0.19 0.24 -0.19 5.16 6.66 -0.14 0.12 -0.16 0.12 -0.14 0.12 -0.14 0.12 -0.15 0.14 -0.15 0.13 -0.13 0.12 -0.15 0.15 -0.14 0.13 -0.14 0.14 -0.14 0.14 -0.14 0.15 -0.14 0.16 -0.14 0.15 -0.14 0.16 -0.13 0.15 -0.13 0.16 -0.14 0.17 -0.13 0.17 -0.14 0.17 -0.13 0.18 -0.13 0.18 -0.13 0.18 -0.13 0.18 -0.13 0.19 -0.12 0.19 -0.13 0.19 -0.13 0.2 -0.12 0.2 -0.12 0.2 -0.13 0.21 -0.12 0.21 0 0zm-3.18 8.24l-8.18 -2.02 0 -0.01 0.09 -0.36 0.1 -0.36 0.09 -0.35 0.1 -0.36 0.1 -0.36 0.1 -0.34 0.1 -0.34 0.11 -0.35 0.11 -0.34 0.11 -0.34 0.12 -0.34 0.11 -0.33 0.12 -0.34 0.12 -0.33 0.12 -0.33 0.13 -0.33 0.12 -0.32 0.13 -0.32 0.13 -0.32 0.14 -0.32 0.14 -0.31 0.13 -0.32 0.14 -0.3 0.15 -0.31 0.14 -0.31 0.15 -0.3 0.15 -0.3 0.15 -0.3 0.16 -0.29 0.16 -0.3 0.16 -0.29 0.16 -0.29 7.32 4.19 -0.12 0.22 -0.12 0.22 -0.12 0.21 -0.11 0.22 -0.12 0.23 -0.12 0.23 -0.11 0.23 -0.11 0.23 -0.11 0.23 -0.11 0.24 -0.11 0.25 -0.1 0.24 -0.1 0.24 -0.11 0.25 -0.1 0.26 -0.1 0.26 -0.1 0.26 -0.1 0.26 -0.1 0.27 -0.09 0.26 -0.09 0.27 -0.09 0.27 -0.1 0.28 -0.09 0.28 -0.08 0.28 -0.09 0.28 -0.08 0.3 -0.08 0.28 -0.08 0.29 -0.08 0.31 -0.08 0.3 -0.08 0.3 0 -0.01zm-1.2 10.12l-8.43 0 0 0 0.01 -0.39 0 -0.39 0.01 -0.4 0.01 -0.38 0.01 -0.39 0.02 -0.4 0.01 -0.37 0.02 -0.4 0.03 -0.39 0.03 -0.38 0.03 -0.38 0.03 -0.38 0.03 -0.39 0.04 -0.39 0.04 -0.37 0.05 -0.38 0.04 -0.38 0.05 -0.38 0.05 -0.38 0.06 -0.38 0.06 -0.37 0.06 -0.38 0.06 -0.37 0.07 -0.37 0.07 -0.37 0.07 -0.37 0.07 -0.38 0.08 -0.36 0.08 -0.38 0.09 -0.36 0.08 -0.37 0.09 -0.36 8.18 2.02 -0.07 0.3 -0.07 0.3 -0.07 0.31 -0.07 0.3 -0.06 0.31 -0.06 0.3 -0.06 0.31 -0.06 0.31 -0.05 0.3 -0.06 0.31 -0.05 0.32 -0.05 0.31 -0.04 0.31 -0.04 0.31 -0.04 0.31 -0.04 0.32 -0.04 0.32 -0.03 0.32 -0.04 0.31 -0.03 0.32 -0.02 0.33 -0.03 0.32 -0.02 0.32 -0.02 0.32 -0.02 0.32 -0.01 0.34 -0.02 0.32 -0.01 0.33 0 0.34 -0.01 0.32 0 0.33 -0.01 0.33 0 0zm-8.43 88.85l0 -88.85 8.43 0 0 88.85 0 0 -8.43 0zm9.53 9.83l-8.21 1.9 0 0 -0.08 -0.35 -0.08 -0.36 -0.08 -0.37 -0.07 -0.35 -0.07 -0.36 -0.07 -0.36 -0.07 -0.36 -0.06 -0.36 -0.06 -0.37 -0.06 -0.36 -0.05 -0.35 -0.05 -0.37 -0.05 -0.36 -0.05 -0.36 -0.05 -0.38 -0.04 -0.37 -0.04 -0.35 -0.04 -0.37 -0.03 -0.37 -0.03 -0.37 -0.03 -0.37 -0.03 -0.38 -0.02 -0.37 -0.02 -0.36 -0.02 -0.37 -0.02 -0.38 -0.01 -0.37 -0.01 -0.37 -0.01 -0.38 -0.01 -0.37 0 -0.38 -0.01 -0.38 8.43 0 0.01 0.32 0 0.32 0 0.32 0.01 0.32 0.01 0.31 0.01 0.32 0.02 0.31 0.01 0.31 0.02 0.32 0.02 0.32 0.02 0.3 0.03 0.31 0.03 0.31 0.03 0.31 0.03 0.3 0.03 0.32 0.03 0.31 0.04 0.29 0.04 0.31 0.04 0.3 0.05 0.31 0.04 0.3 0.05 0.31 0.05 0.29 0.05 0.3 0.06 0.3 0.05 0.3 0.07 0.3 0.05 0.3 0.07 0.29 0.06 0.3 0.07 0.3 0 0zm3.07 8.22l-7.38 4.09 0 0 -0.16 -0.29 -0.16 -0.3 -0.15 -0.3 -0.16 -0.3 -0.15 -0.3 -0.14 -0.3 -0.15 -0.31 -0.14 -0.31 -0.15 -0.31 -0.14 -0.32 -0.13 -0.3 -0.13 -0.32 -0.13 -0.33 -0.13 -0.31 -0.13 -0.33 -0.12 -0.32 -0.12 -0.33 -0.12 -0.32 -0.11 -0.34 -0.12 -0.33 -0.11 -0.34 -0.11 -0.33 -0.1 -0.34 -0.11 -0.34 -0.1 -0.35 -0.1 -0.34 -0.09 -0.35 -0.09 -0.34 -0.09 -0.35 -0.09 -0.36 -0.09 -0.35 -0.08 -0.35 8.21 -1.9 0.07 0.29 0.07 0.29 0.07 0.29 0.08 0.28 0.07 0.29 0.08 0.29 0.08 0.27 0.08 0.28 0.08 0.27 0.09 0.27 0.09 0.28 0.08 0.26 0.09 0.26 0.09 0.26 0.1 0.27 0.1 0.26 0.09 0.25 0.1 0.25 0.1 0.26 0.1 0.24 0.11 0.24 0.11 0.26 0.1 0.24 0.11 0.23 0.11 0.24 0.11 0.24 0.12 0.24 0.11 0.22 0.12 0.23 0.11 0.23 0.12 0.22 0.13 0.23 0 -0.01zm4.36 5.21l-5.04 6.76 0 0 -0.25 -0.19 -0.24 -0.2 -0.26 -0.2 -0.24 -0.2 -0.25 -0.21 -0.23 -0.21 -0.24 -0.21 -0.22 -0.21 -0.24 -0.23 -0.23 -0.23 -0.23 -0.23 -0.21 -0.22 -0.22 -0.24 -0.22 -0.24 -0.22 -0.24 -0.21 -0.25 -0.2 -0.25 -0.2 -0.24 -0.21 -0.26 -0.2 -0.27 -0.2 -0.26 -0.19 -0.26 -0.19 -0.26 -0.19 -0.28 -0.18 -0.27 -0.18 -0.28 -0.19 -0.29 -0.17 -0.28 -0.18 -0.29 -0.17 -0.29 -0.17 -0.29 -0.17 -0.3 7.38 -4.09 0.12 0.22 0.12 0.22 0.12 0.2 0.12 0.2 0.13 0.21 0.12 0.18 0.13 0.2 0.13 0.19 0.13 0.18 0.13 0.19 0.13 0.18 0.13 0.18 0.13 0.17 0.14 0.16 0.14 0.18 0.13 0.16 0.14 0.16 0.13 0.15 0.14 0.15 0.15 0.16 0.14 0.15 0.14 0.14 0.14 0.14 0.14 0.13 0.15 0.14 0.15 0.14 0.14 0.13 0.15 0.12 0.15 0.12 0.14 0.12 0.16 0.12 0.15 0.12 0 0zm4.58 1.58l0 8.43 0 0 -0.33 0 -0.32 -0.01 -0.32 -0.02 -0.32 -0.02 -0.32 -0.03 -0.32 -0.03 -0.32 -0.05 -0.32 -0.04 -0.32 -0.06 -0.31 -0.06 -0.31 -0.07 -0.32 -0.07 -0.31 -0.09 -0.31 -0.08 -0.3 -0.1 -0.31 -0.1 -0.31 -0.11 -0.3 -0.11 -0.29 -0.12 -0.3 -0.12 -0.3 -0.14 -0.29 -0.14 -0.29 -0.14 -0.29 -0.15 -0.28 -0.15 -0.27 -0.16 -0.28 -0.17 -0.28 -0.17 -0.28 -0.18 -0.26 -0.18 -0.27 -0.19 -0.27 -0.19 5.04 -6.76 0.14 0.1 0.14 0.1 0.15 0.1 0.14 0.09 0.14 0.09 0.14 0.08 0.14 0.08 0.14 0.08 0.14 0.07 0.14 0.07 0.14 0.07 0.13 0.06 0.14 0.05 0.14 0.06 0.14 0.05 0.14 0.05 0.14 0.05 0.14 0.04 0.14 0.04 0.14 0.04 0.14 0.03 0.14 0.03 0.15 0.03 0.14 0.03 0.15 0.02 0.14 0.02 0.15 0.01 0.15 0.02 0.15 0.01 0.16 0.01 0.15 0 0.16 0 0 0zm33.91 8.43l-33.91 0 0 -8.43 33.91 0 4.21 4.22 -4.21 4.21zm0 -8.43c2.32,0 4.21,1.89 4.21,4.22 0,2.32 -1.89,4.21 -4.21,4.21l0 -8.43zm4.21 -58l0 62.22 -8.43 0 0 -62.22 4.22 -4.22 4.21 4.22zm-8.43 0c0,-2.33 1.89,-4.22 4.22,-4.22 2.32,0 4.21,1.89 4.21,4.22l-8.43 0zm-28.01 -4.22l32.23 0 0 8.43 -32.23 0 -4.22 -4.21 4.22 -4.22zm0 8.43c-2.33,0 -4.22,-1.88 -4.22,-4.21 0,-2.33 1.89,-4.22 4.22,-4.22l0 8.43zm4.22 -28.42l0 24.21 -8.44 0 0 -24.21 4.22 -4.22 4.22 4.22zm-8.44 0c0,-2.33 1.89,-4.22 4.22,-4.22 2.33,0 4.22,1.89 4.22,4.22l-8.44 0zm70.84 4.21l-66.62 0 0 -8.43 66.62 0 4.21 4.22 -4.21 4.21zm0 -8.43c2.33,0 4.21,1.89 4.21,4.22 0,2.33 -1.88,4.21 -4.21,4.21l0 -8.43zm-4.22 114.61l0 -110.39 8.43 0 0 110.39 -4.21 4.22 -4.22 -4.22zm8.43 0c0,2.33 -1.88,4.22 -4.21,4.22 -2.33,0 -4.22,-1.89 -4.22,-4.22l8.43 0zm-88.15 -4.21l83.94 0 0 8.43 -83.94 0 0 0 0 -8.43zm-17.44 3.71l4.34 -7.22 0 -0.01 0.37 0.22 0.37 0.21 0.37 0.21 0.38 0.19 0.37 0.19 0.38 0.18 0.38 0.17 0.39 0.17 0.39 0.16 0.39 0.16 0.38 0.14 0.4 0.14 0.4 0.14 0.4 0.12 0.4 0.12 0.41 0.12 0.4 0.1 0.41 0.1 0.42 0.09 0.41 0.09 0.43 0.08 0.42 0.07 0.43 0.07 0.43 0.05 0.44 0.06 0.43 0.04 0.44 0.04 0.45 0.03 0.44 0.03 0.46 0.01 0.46 0.02 0.45 0 0 8.43 -0.59 -0.01 -0.58 -0.01 -0.58 -0.02 -0.59 -0.03 -0.58 -0.04 -0.58 -0.05 -0.57 -0.07 -0.57 -0.06 -0.57 -0.08 -0.57 -0.09 -0.56 -0.1 -0.56 -0.1 -0.56 -0.11 -0.55 -0.13 -0.56 -0.13 -0.55 -0.15 -0.54 -0.15 -0.55 -0.16 -0.54 -0.17 -0.53 -0.18 -0.54 -0.19 -0.53 -0.2 -0.52 -0.21 -0.52 -0.21 -0.52 -0.23 -0.52 -0.23 -0.51 -0.25 -0.51 -0.25 -0.5 -0.27 -0.5 -0.27 -0.5 -0.28 -0.49 -0.29 0 0zm-12.98 -12.51l6.98 -4.72 0.01 0.01 0.27 0.4 0.28 0.39 0.28 0.39 0.28 0.38 0.28 0.38 0.29 0.37 0.3 0.37 0.29 0.36 0.3 0.35 0.3 0.35 0.3 0.34 0.31 0.34 0.32 0.33 0.31 0.32 0.32 0.32 0.32 0.31 0.32 0.31 0.33 0.3 0.33 0.3 0.33 0.3 0.34 0.28 0.34 0.28 0.35 0.28 0.34 0.27 0.35 0.26 0.36 0.27 0.36 0.25 0.35 0.25 0.37 0.24 0.37 0.24 0.37 0.24 0.37 0.23 -4.34 7.22 -0.48 -0.29 -0.47 -0.3 -0.47 -0.3 -0.46 -0.31 -0.46 -0.32 -0.46 -0.33 -0.45 -0.33 -0.45 -0.34 -0.44 -0.34 -0.43 -0.35 -0.43 -0.36 -0.43 -0.36 -0.43 -0.37 -0.41 -0.38 -0.42 -0.38 -0.41 -0.39 -0.4 -0.39 -0.4 -0.41 -0.4 -0.41 -0.38 -0.41 -0.39 -0.42 -0.38 -0.43 -0.37 -0.43 -0.38 -0.44 -0.36 -0.44 -0.36 -0.45 -0.36 -0.46 -0.35 -0.46 -0.35 -0.47 -0.34 -0.48 -0.33 -0.48 -0.34 -0.49 0.01 0.01zm-8.03 -18.07l8.13 -2.23 0 0 0.16 0.57 0.16 0.57 0.16 0.55 0.17 0.55 0.18 0.55 0.17 0.54 0.18 0.54 0.19 0.53 0.19 0.53 0.19 0.51 0.19 0.52 0.2 0.51 0.2 0.5 0.21 0.5 0.21 0.5 0.21 0.48 0.22 0.49 0.22 0.48 0.23 0.47 0.22 0.47 0.24 0.46 0.23 0.46 0.24 0.46 0.24 0.44 0.25 0.44 0.25 0.44 0.25 0.44 0.26 0.42 0.26 0.43 0.27 0.41 0.26 0.42 0.27 0.4 -6.98 4.72 -0.33 -0.49 -0.32 -0.5 -0.32 -0.5 -0.31 -0.5 -0.31 -0.51 -0.3 -0.52 -0.29 -0.51 -0.3 -0.53 -0.28 -0.53 -0.29 -0.54 -0.27 -0.53 -0.27 -0.55 -0.27 -0.54 -0.26 -0.56 -0.26 -0.56 -0.25 -0.56 -0.25 -0.57 -0.24 -0.57 -0.24 -0.57 -0.24 -0.59 -0.23 -0.58 -0.22 -0.59 -0.22 -0.6 -0.21 -0.6 -0.21 -0.61 -0.21 -0.61 -0.2 -0.61 -0.19 -0.62 -0.2 -0.62 -0.18 -0.63 -0.18 -0.64 -0.18 -0.63 0 0zm-2.8 -21.94l8.43 0 0 0 0.01 0.67 0 0.66 0.02 0.66 0.01 0.65 0.03 0.65 0.02 0.65 0.03 0.64 0.04 0.64 0.04 0.65 0.05 0.63 0.05 0.63 0.06 0.63 0.06 0.63 0.06 0.62 0.07 0.62 0.08 0.62 0.08 0.61 0.09 0.61 0.09 0.61 0.09 0.61 0.1 0.6 0.11 0.59 0.11 0.6 0.11 0.59 0.12 0.6 0.12 0.59 0.13 0.58 0.14 0.58 0.13 0.58 0.15 0.57 0.15 0.57 0.15 0.57 -8.13 2.23 -0.17 -0.65 -0.17 -0.64 -0.16 -0.66 -0.16 -0.65 -0.15 -0.65 -0.15 -0.66 -0.14 -0.66 -0.13 -0.66 -0.13 -0.67 -0.12 -0.66 -0.12 -0.68 -0.11 -0.67 -0.11 -0.67 -0.1 -0.69 -0.09 -0.68 -0.09 -0.68 -0.09 -0.69 -0.07 -0.69 -0.08 -0.69 -0.07 -0.69 -0.06 -0.7 -0.06 -0.7 -0.05 -0.71 -0.04 -0.7 -0.04 -0.71 -0.04 -0.71 -0.03 -0.71 -0.02 -0.72 -0.02 -0.72 -0.01 -0.71 -0.01 -0.73 -0.01 -0.73 0 0zm8.43 -88.85l0 88.85 -8.43 0 0 -88.85 0 0 8.43 0zm-5.5 -22.32l8.11 2.29 0 0 -0.16 0.57 -0.15 0.58 -0.15 0.58 -0.15 0.59 -0.14 0.59 -0.13 0.59 -0.13 0.6 -0.13 0.59 -0.11 0.6 -0.12 0.61 -0.11 0.61 -0.1 0.61 -0.1 0.61 -0.1 0.62 -0.09 0.62 -0.08 0.62 -0.08 0.63 -0.07 0.63 -0.07 0.64 -0.07 0.63 -0.05 0.64 -0.06 0.65 -0.05 0.65 -0.04 0.65 -0.04 0.65 -0.03 0.66 -0.03 0.66 -0.02 0.66 -0.02 0.67 -0.02 0.68 0 0.67 -0.01 0.67 -8.43 0 0.01 -0.74 0.01 -0.74 0.01 -0.73 0.02 -0.73 0.02 -0.73 0.04 -0.74 0.03 -0.72 0.04 -0.72 0.05 -0.72 0.06 -0.72 0.06 -0.71 0.06 -0.71 0.07 -0.71 0.08 -0.7 0.08 -0.71 0.09 -0.69 0.09 -0.7 0.1 -0.7 0.11 -0.69 0.11 -0.69 0.12 -0.68 0.12 -0.68 0.13 -0.68 0.13 -0.68 0.14 -0.67 0.15 -0.67 0.15 -0.67 0.16 -0.66 0.16 -0.66 0.17 -0.66 0.18 -0.66 0.18 -0.65 0 0zm8.11 -18.25l7.03 4.65 0 0 -0.27 0.42 -0.27 0.42 -0.26 0.43 -0.27 0.43 -0.26 0.44 -0.25 0.44 -0.26 0.45 -0.25 0.45 -0.24 0.45 -0.24 0.47 -0.24 0.47 -0.24 0.47 -0.23 0.48 -0.23 0.48 -0.22 0.49 -0.23 0.49 -0.22 0.5 -0.21 0.51 -0.21 0.5 -0.21 0.52 -0.21 0.52 -0.19 0.52 -0.2 0.53 -0.2 0.54 -0.19 0.54 -0.18 0.54 -0.19 0.55 -0.18 0.56 -0.17 0.56 -0.18 0.57 -0.17 0.57 -0.16 0.58 -8.11 -2.29 0.18 -0.65 0.19 -0.64 0.19 -0.63 0.2 -0.63 0.2 -0.62 0.21 -0.63 0.21 -0.61 0.22 -0.61 0.21 -0.6 0.23 -0.61 0.23 -0.6 0.23 -0.59 0.24 -0.58 0.24 -0.59 0.25 -0.58 0.25 -0.57 0.26 -0.57 0.25 -0.56 0.27 -0.56 0.27 -0.55 0.27 -0.55 0.28 -0.54 0.28 -0.54 0.29 -0.54 0.29 -0.53 0.3 -0.52 0.3 -0.53 0.31 -0.51 0.3 -0.51 0.32 -0.5 0.32 -0.51 0.32 -0.49 0 0zm13.01 -12.67l4.34 7.23 0 0 -0.37 0.23 -0.37 0.23 -0.37 0.24 -0.36 0.24 -0.36 0.25 -0.36 0.26 -0.35 0.26 -0.35 0.27 -0.35 0.27 -0.34 0.28 -0.34 0.28 -0.33 0.28 -0.33 0.3 -0.34 0.3 -0.32 0.31 -0.33 0.3 -0.32 0.32 -0.32 0.33 -0.31 0.33 -0.31 0.33 -0.31 0.34 -0.3 0.34 -0.3 0.36 -0.3 0.36 -0.3 0.36 -0.29 0.37 -0.29 0.38 -0.29 0.38 -0.28 0.38 -0.28 0.4 -0.27 0.4 -0.28 0.41 -7.03 -4.65 0.34 -0.5 0.33 -0.49 0.34 -0.48 0.35 -0.47 0.35 -0.48 0.36 -0.46 0.36 -0.46 0.37 -0.45 0.37 -0.44 0.37 -0.44 0.38 -0.43 0.39 -0.43 0.39 -0.42 0.39 -0.41 0.4 -0.41 0.41 -0.4 0.41 -0.39 0.41 -0.39 0.42 -0.38 0.42 -0.37 0.43 -0.37 0.44 -0.37 0.44 -0.35 0.44 -0.34 0.44 -0.34 0.46 -0.34 0.45 -0.33 0.46 -0.31 0.47 -0.32 0.47 -0.3 0.48 -0.31 0.47 -0.29 0 0zm17.2 -4.72l0 8.43 0 0 -0.44 0.01 -0.43 0.01 -0.44 0.02 -0.44 0.02 -0.43 0.03 -0.43 0.04 -0.42 0.04 -0.42 0.05 -0.42 0.06 -0.42 0.07 -0.41 0.07 -0.41 0.08 -0.41 0.09 -0.4 0.09 -0.41 0.1 -0.4 0.1 -0.39 0.12 -0.4 0.12 -0.39 0.12 -0.4 0.14 -0.39 0.13 -0.38 0.15 -0.39 0.16 -0.38 0.16 -0.38 0.16 -0.38 0.18 -0.38 0.18 -0.38 0.19 -0.37 0.2 -0.37 0.2 -0.38 0.21 -0.37 0.22 -4.34 -7.23 0.49 -0.29 0.49 -0.27 0.5 -0.28 0.51 -0.26 0.5 -0.25 0.51 -0.25 0.5 -0.23 0.52 -0.23 0.52 -0.22 0.52 -0.2 0.52 -0.2 0.53 -0.19 0.53 -0.18 0.53 -0.17 0.53 -0.16 0.55 -0.16 0.54 -0.14 0.54 -0.13 0.55 -0.13 0.54 -0.11 0.56 -0.11 0.55 -0.1 0.56 -0.09 0.56 -0.07 0.57 -0.07 0.56 -0.06 0.56 -0.05 0.57 -0.04 0.57 -0.04 0.57 -0.02 0.58 -0.01 0.57 -0.01 0 0zm81.05 8.43l-81.05 0 0 -8.43 81.05 0 4.22 4.22 -4.22 4.21zm0 -8.43c2.33,0 4.22,1.89 4.22,4.22 0,2.33 -1.89,4.21 -4.22,4.21l0 -8.43zm139.75 28.67l0 -24.45 8.43 0 0 24.45 -4.22 4.22 -4.21 -4.22zm8.43 0c0,2.33 -1.89,4.22 -4.22,4.22 -2.33,0 -4.21,-1.89 -4.21,-4.22l8.43 0zm-85.51 -4.21l81.29 0 0 8.43 -81.29 0 -4.21 -4.22 4.21 -4.21zm0 8.43c-2.32,0 -4.21,-1.89 -4.21,-4.22 0,-2.33 1.89,-4.21 4.21,-4.21l0 8.43zm-4.21 56.79l0 -61.01 8.43 0 0 61.01 -4.22 4.22 -4.21 -4.22zm8.43 0c0,2.33 -1.89,4.22 -4.22,4.22 -2.32,0 -4.21,-1.89 -4.21,-4.22l8.43 0zm54.95 4.22l-59.17 0 0 -8.44 59.17 0 4.21 4.22 -4.21 4.22zm0 -8.44c2.32,0 4.21,1.89 4.21,4.22 0,2.33 -1.89,4.22 -4.21,4.22l0 -8.44zm-4.22 28.19l0 -23.97 8.43 0 0 23.97 -4.21 4.21 -4.22 -4.21zm8.43 0c0,2.33 -1.89,4.21 -4.21,4.21 -2.33,0 -4.22,-1.88 -4.22,-4.21l8.43 0zm-63.38 -4.22l59.17 0 0 8.43 -59.17 0 -4.21 -4.21 4.21 -4.22zm0 8.43c-2.32,0 -4.21,-1.88 -4.21,-4.21 0,-2.33 1.89,-4.22 4.21,-4.22l0 8.43zm-4.21 58.01l0 -62.22 8.43 0 0 62.22 -4.22 4.21 -4.21 -4.21zm8.43 0c0,2.32 -1.89,4.21 -4.22,4.21 -2.32,0 -4.21,-1.89 -4.21,-4.21l8.43 0zm77.07 4.21l-81.29 0 0 -8.43 81.29 0 4.22 4.22 -4.22 4.21zm0 -8.43c2.33,0 4.22,1.89 4.22,4.22 0,2.32 -1.89,4.21 -4.22,4.21l0 -8.43zm-4.21 28.18l0 -23.96 8.43 0 0 23.96 -4.22 4.22 -4.21 -4.22zm8.43 0c0,2.33 -1.89,4.22 -4.22,4.22 -2.33,0 -4.21,-1.89 -4.21,-4.22l8.43 0zm-123.26 -4.21l119.04 0 0 8.43 -119.04 0 -4.22 -4.22 4.22 -4.21zm0 8.43c-2.33,0 -4.22,-1.89 -4.22,-4.22 0,-2.32 1.89,-4.21 4.22,-4.21l0 8.43zm4.21 -199.83l0 195.61 -8.43 0 0 -195.61 4.22 -4.22 4.21 4.22zm-8.43 0c0,-2.33 1.89,-4.22 4.22,-4.22 2.32,0 4.21,1.89 4.21,4.22l-8.43 0zm123.26 4.21l-119.04 0 0 -8.43 119.04 0 4.22 4.22 -4.22 4.21zm0 -8.43c2.33,0 4.22,1.89 4.22,4.22 0,2.33 -1.89,4.21 -4.22,4.21l0 -8.43zm136.03 14.25l-6.51 5.36 0 0 -0.58 -0.68 -0.59 -0.65 -0.61 -0.63 -0.64 -0.61 -0.66 -0.59 -0.67 -0.57 -0.7 -0.54 -0.72 -0.53 -0.74 -0.51 -0.76 -0.48 -0.79 -0.47 -0.81 -0.44 -0.83 -0.42 -0.86 -0.41 -0.89 -0.39 -0.9 -0.36 -0.94 -0.34 -0.96 -0.33 -0.98 -0.3 -1.01 -0.28 -1.04 -0.26 -1.06 -0.24 -1.09 -0.21 -1.11 -0.2 -1.14 -0.17 -1.17 -0.15 -1.19 -0.13 -1.23 -0.1 -1.24 -0.08 -1.28 -0.06 -1.3 -0.04 -1.32 -0.01 0 -8.43 1.47 0.02 1.46 0.04 1.43 0.06 1.42 0.09 1.39 0.12 1.37 0.15 1.35 0.17 1.33 0.2 1.31 0.23 1.28 0.26 1.27 0.28 1.24 0.31 1.22 0.34 1.21 0.37 1.17 0.4 1.16 0.42 1.14 0.46 1.11 0.48 1.09 0.51 1.06 0.55 1.05 0.57 1.01 0.6 1 0.64 0.97 0.66 0.94 0.69 0.92 0.72 0.89 0.75 0.87 0.77 0.84 0.81 0.81 0.83 0.78 0.86 0.76 0.89 0 0zm11.42 44.2l-8.43 0 0 0 -0.01 -1.74 -0.03 -1.7 -0.05 -1.67 -0.06 -1.64 -0.09 -1.6 -0.11 -1.57 -0.13 -1.54 -0.15 -1.5 -0.16 -1.47 -0.19 -1.43 -0.2 -1.4 -0.23 -1.37 -0.24 -1.33 -0.26 -1.3 -0.28 -1.27 -0.3 -1.23 -0.31 -1.19 -0.33 -1.16 -0.35 -1.13 -0.37 -1.1 -0.38 -1.06 -0.4 -1.02 -0.42 -0.99 -0.43 -0.96 -0.45 -0.92 -0.47 -0.89 -0.48 -0.86 -0.49 -0.82 -0.51 -0.8 -0.52 -0.76 -0.54 -0.72 -0.56 -0.7 6.51 -5.36 0.73 0.92 0.71 0.96 0.68 0.99 0.66 1.01 0.63 1.05 0.6 1.08 0.58 1.11 0.55 1.13 0.53 1.17 0.5 1.19 0.48 1.22 0.45 1.26 0.43 1.28 0.41 1.31 0.38 1.34 0.36 1.37 0.34 1.39 0.31 1.42 0.29 1.46 0.27 1.48 0.25 1.51 0.22 1.54 0.21 1.57 0.18 1.6 0.15 1.63 0.14 1.65 0.12 1.69 0.09 1.71 0.08 1.75 0.05 1.77 0.03 1.81 0.01 1.83 0 0zm-5.82 27.85l-7.6 -3.65 0 0 0.3 -0.65 0.3 -0.65 0.28 -0.66 0.28 -0.67 0.27 -0.67 0.25 -0.68 0.25 -0.69 0.24 -0.69 0.22 -0.7 0.22 -0.71 0.21 -0.71 0.2 -0.72 0.19 -0.74 0.19 -0.74 0.17 -0.74 0.16 -0.75 0.15 -0.76 0.14 -0.76 0.14 -0.78 0.12 -0.78 0.11 -0.79 0.11 -0.79 0.09 -0.8 0.08 -0.81 0.08 -0.82 0.06 -0.83 0.06 -0.83 0.04 -0.84 0.04 -0.85 0.02 -0.86 0.02 -0.86 0 -0.87 8.43 0 0 0.97 -0.02 0.96 -0.03 0.96 -0.04 0.95 -0.05 0.94 -0.06 0.93 -0.07 0.94 -0.08 0.92 -0.1 0.92 -0.11 0.91 -0.12 0.91 -0.12 0.9 -0.15 0.89 -0.15 0.89 -0.16 0.88 -0.18 0.88 -0.18 0.86 -0.2 0.87 -0.21 0.85 -0.22 0.85 -0.24 0.85 -0.24 0.83 -0.26 0.83 -0.27 0.82 -0.28 0.82 -0.29 0.81 -0.3 0.8 -0.32 0.8 -0.32 0.79 -0.34 0.78 -0.35 0.77 -0.36 0.77 0 0zm-21.48 11.04l-2.88 7.92 -0.15 -7.86 0.78 -0.33 0.76 -0.33 0.75 -0.35 0.73 -0.35 0.7 -0.36 0.7 -0.37 0.68 -0.38 0.65 -0.38 0.65 -0.4 0.62 -0.4 0.61 -0.41 0.59 -0.42 0.58 -0.43 0.56 -0.44 0.55 -0.45 0.53 -0.45 0.51 -0.47 0.5 -0.47 0.48 -0.48 0.47 -0.49 0.45 -0.5 0.44 -0.5 0.43 -0.52 0.41 -0.52 0.39 -0.54 0.39 -0.54 0.36 -0.56 0.36 -0.56 0.34 -0.57 0.33 -0.59 0.31 -0.59 0.3 -0.6 7.6 3.65 -0.4 0.79 -0.41 0.78 -0.43 0.77 -0.45 0.76 -0.47 0.74 -0.48 0.73 -0.51 0.72 -0.52 0.71 -0.55 0.69 -0.55 0.68 -0.58 0.67 -0.6 0.66 -0.61 0.63 -0.63 0.63 -0.65 0.61 -0.66 0.6 -0.69 0.59 -0.69 0.57 -0.72 0.56 -0.73 0.54 -0.75 0.53 -0.76 0.52 -0.78 0.5 -0.79 0.49 -0.82 0.48 -0.82 0.46 -0.84 0.45 -0.86 0.44 -0.87 0.42 -0.89 0.41 -0.91 0.39 -0.91 0.39 -0.15 -7.87zm0.15 7.87c-2.16,0.87 -4.62,-0.17 -5.5,-2.32 -0.87,-2.16 0.17,-4.62 2.32,-5.49l3.18 7.81zm11.33 -2.41l-4.44 7.17 0 0 -0.27 -0.17 -0.27 -0.16 -0.27 -0.16 -0.28 -0.16 -0.28 -0.17 -0.28 -0.15 -0.29 -0.16 -0.28 -0.16 -0.29 -0.15 -0.29 -0.16 -0.29 -0.15 -0.3 -0.15 -0.3 -0.15 -0.3 -0.15 -0.31 -0.15 -0.31 -0.15 -0.31 -0.15 -0.31 -0.14 -0.32 -0.15 -0.32 -0.14 -0.32 -0.14 -0.33 -0.14 -0.32 -0.14 -0.34 -0.14 -0.33 -0.14 -0.34 -0.14 -0.33 -0.13 -0.34 -0.13 -0.35 -0.14 -0.34 -0.13 -0.36 -0.13 -0.35 -0.13 2.88 -7.92 0.39 0.14 0.39 0.15 0.4 0.15 0.38 0.15 0.39 0.15 0.39 0.15 0.38 0.16 0.38 0.15 0.38 0.16 0.37 0.16 0.37 0.16 0.37 0.16 0.37 0.17 0.36 0.17 0.37 0.16 0.36 0.18 0.36 0.17 0.35 0.17 0.35 0.17 0.36 0.18 0.34 0.18 0.35 0.18 0.34 0.18 0.34 0.18 0.35 0.19 0.32 0.18 0.34 0.2 0.33 0.19 0.33 0.18 0.33 0.2 0.32 0.2 0.32 0.19 0 0zm9.1 8.33l-6.76 5.04 0 -0.01 -0.18 -0.23 -0.18 -0.23 -0.17 -0.22 -0.19 -0.23 -0.18 -0.22 -0.18 -0.21 -0.19 -0.22 -0.2 -0.21 -0.19 -0.22 -0.19 -0.21 -0.2 -0.2 -0.2 -0.2 -0.21 -0.21 -0.2 -0.19 -0.2 -0.2 -0.22 -0.2 -0.21 -0.19 -0.22 -0.19 -0.2 -0.18 -0.23 -0.19 -0.23 -0.19 -0.22 -0.17 -0.22 -0.18 -0.23 -0.17 -0.24 -0.18 -0.23 -0.17 -0.24 -0.17 -0.24 -0.17 -0.24 -0.16 -0.25 -0.16 -0.25 -0.16 -0.25 -0.16 4.44 -7.17 0.33 0.21 0.33 0.21 0.33 0.22 0.32 0.22 0.32 0.22 0.32 0.22 0.31 0.23 0.31 0.23 0.31 0.24 0.31 0.24 0.3 0.24 0.3 0.24 0.29 0.25 0.3 0.26 0.29 0.26 0.28 0.25 0.28 0.26 0.29 0.27 0.28 0.27 0.27 0.27 0.27 0.28 0.27 0.28 0.26 0.28 0.26 0.28 0.26 0.29 0.25 0.29 0.26 0.3 0.24 0.3 0.24 0.3 0.25 0.3 0.23 0.31 0.24 0.31 0 0zm5.71 11.73l-8.08 2.4 0 0 -0.1 -0.34 -0.11 -0.34 -0.11 -0.33 -0.11 -0.32 -0.11 -0.33 -0.11 -0.32 -0.12 -0.32 -0.12 -0.31 -0.12 -0.31 -0.12 -0.3 -0.13 -0.31 -0.13 -0.3 -0.13 -0.29 -0.13 -0.3 -0.13 -0.29 -0.14 -0.28 -0.14 -0.28 -0.14 -0.28 -0.14 -0.28 -0.15 -0.27 -0.14 -0.27 -0.15 -0.26 -0.15 -0.26 -0.16 -0.26 -0.16 -0.26 -0.15 -0.25 -0.16 -0.24 -0.17 -0.25 -0.16 -0.24 -0.17 -0.24 -0.16 -0.23 -0.17 -0.23 6.76 -5.04 0.23 0.32 0.23 0.32 0.23 0.32 0.22 0.33 0.21 0.32 0.22 0.34 0.21 0.34 0.21 0.33 0.2 0.34 0.2 0.35 0.2 0.36 0.19 0.35 0.19 0.35 0.19 0.36 0.18 0.36 0.19 0.37 0.17 0.37 0.17 0.37 0.17 0.38 0.17 0.37 0.16 0.38 0.16 0.39 0.16 0.38 0.15 0.39 0.15 0.4 0.14 0.39 0.15 0.4 0.14 0.41 0.13 0.4 0.13 0.41 0.13 0.41 0.13 0.41 0 0.01zm1.98 15.48l-8.44 0 0 0 0 -0.48 0 -0.48 -0.01 -0.47 -0.01 -0.47 -0.02 -0.47 -0.01 -0.45 -0.03 -0.46 -0.02 -0.45 -0.03 -0.45 -0.03 -0.44 -0.03 -0.43 -0.04 -0.44 -0.04 -0.42 -0.05 -0.42 -0.04 -0.42 -0.05 -0.41 -0.06 -0.41 -0.05 -0.39 -0.06 -0.4 -0.06 -0.4 -0.07 -0.38 -0.07 -0.39 -0.07 -0.37 -0.07 -0.38 -0.08 -0.36 -0.08 -0.37 -0.08 -0.35 -0.09 -0.35 -0.09 -0.36 -0.09 -0.34 -0.09 -0.33 -0.1 -0.34 8.08 -2.4 0.12 0.42 0.12 0.44 0.12 0.43 0.11 0.43 0.11 0.44 0.1 0.45 0.1 0.45 0.09 0.45 0.1 0.46 0.08 0.46 0.09 0.47 0.07 0.46 0.08 0.47 0.07 0.47 0.07 0.49 0.06 0.48 0.06 0.48 0.05 0.49 0.06 0.49 0.04 0.5 0.05 0.5 0.04 0.5 0.03 0.52 0.03 0.5 0.03 0.52 0.03 0.52 0.02 0.52 0.01 0.53 0.02 0.53 0.01 0.53 0 0.54 0.01 0.54 0 0zm-8.44 61.49l0 -61.49 8.44 0 0 61.49 -4.22 4.22 -4.22 -4.22zm8.44 0c0,2.33 -1.89,4.22 -4.22,4.22 -2.33,0 -4.22,-1.89 -4.22,-4.22l8.44 0zm-39.81 -4.21l35.59 0 0 8.43 -35.59 0 -4.22 -4.22 4.22 -4.21zm0 8.43c-2.33,0 -4.22,-1.89 -4.22,-4.22 0,-2.32 1.89,-4.21 4.22,-4.21l0 8.43zm4.21 -51.67l0 47.45 -8.43 0 0 -47.45 0 0 8.43 0zm-21.77 -33.07l0 -8.43 0 0 1.37 0.05 1.35 0.14 1.32 0.24 1.3 0.34 1.26 0.44 1.22 0.54 1.17 0.63 1.13 0.73 1.06 0.82 1.01 0.9 0.94 0.98 0.89 1.05 0.82 1.12 0.77 1.19 0.71 1.26 0.66 1.31 0.61 1.38 0.56 1.45 0.52 1.5 0.47 1.57 0.43 1.63 0.39 1.69 0.35 1.76 0.31 1.82 0.28 1.88 0.23 1.96 0.2 2.02 0.16 2.08 0.12 2.16 0.09 2.22 0.05 2.29 0.02 2.35 -8.43 0 -0.02 -2.23 -0.05 -2.15 -0.08 -2.07 -0.11 -2 -0.15 -1.92 -0.18 -1.84 -0.21 -1.76 -0.24 -1.68 -0.28 -1.61 -0.3 -1.52 -0.33 -1.43 -0.36 -1.36 -0.38 -1.27 -0.41 -1.2 -0.43 -1.1 -0.46 -1.02 -0.47 -0.94 -0.48 -0.86 -0.51 -0.78 -0.51 -0.7 -0.52 -0.62 -0.53 -0.55 -0.54 -0.48 -0.54 -0.42 -0.56 -0.36 -0.58 -0.32 -0.59 -0.26 -0.63 -0.22 -0.66 -0.17 -0.69 -0.12 -0.75 -0.08 -0.79 -0.03 0 0zm-33.43 -8.43l33.43 0 0 8.43 -33.43 0 -4.21 -4.21 4.21 -4.22zm0 8.43c-2.32,0 -4.21,-1.88 -4.21,-4.21 0,-2.33 1.89,-4.22 4.21,-4.22l0 8.43zm-4.21 80.52l0 -84.73 8.43 0 0 84.73 -4.22 4.22 -4.21 -4.22zm8.43 0c0,2.33 -1.89,4.22 -4.22,4.22 -2.32,0 -4.21,-1.89 -4.21,-4.22l8.43 0zm-41.49 -4.21l37.27 0 0 8.43 -37.27 0 -4.22 -4.22 4.22 -4.21zm0 8.43c-2.33,0 -4.22,-1.89 -4.22,-4.22 0,-2.32 1.89,-4.21 4.22,-4.21l0 8.43zm4.21 -199.83l0 195.61 -8.43 0 0 -195.61 4.22 -4.22 4.21 4.22zm-8.43 0c0,-2.33 1.89,-4.22 4.22,-4.22 2.32,0 4.21,1.89 4.21,4.22l-8.43 0zm83.58 4.21l-79.36 0 0 -8.43 79.36 0 0 0 0 8.43zm-7.94 86.67l-34.15 0 0 -8.43 34.15 0 0 0 0 8.43zm9.19 -14.63l7.36 4.13 0 0 -0.35 0.6 -0.36 0.59 -0.37 0.57 -0.38 0.56 -0.39 0.54 -0.4 0.52 -0.41 0.51 -0.43 0.5 -0.44 0.48 -0.45 0.46 -0.46 0.45 -0.48 0.43 -0.49 0.41 -0.5 0.39 -0.51 0.37 -0.53 0.36 -0.54 0.33 -0.54 0.32 -0.56 0.29 -0.56 0.27 -0.58 0.25 -0.59 0.23 -0.6 0.21 -0.6 0.18 -0.61 0.16 -0.62 0.14 -0.61 0.12 -0.63 0.1 -0.64 0.07 -0.64 0.05 -0.63 0.03 -0.65 0.01 0 -8.43 0.37 0 0.37 -0.02 0.35 -0.03 0.34 -0.04 0.33 -0.05 0.33 -0.06 0.32 -0.07 0.31 -0.09 0.3 -0.09 0.3 -0.1 0.29 -0.11 0.28 -0.13 0.29 -0.14 0.28 -0.14 0.28 -0.16 0.27 -0.17 0.28 -0.19 0.27 -0.19 0.27 -0.22 0.27 -0.22 0.26 -0.24 0.27 -0.26 0.26 -0.27 0.27 -0.29 0.26 -0.3 0.26 -0.32 0.26 -0.34 0.25 -0.36 0.26 -0.37 0.25 -0.39 0.25 -0.41 0.24 -0.43 0 0zm4.15 -20.33l8.43 0 0 0 0 0.92 -0.02 0.91 -0.02 0.89 -0.03 0.89 -0.05 0.88 -0.05 0.86 -0.07 0.86 -0.07 0.85 -0.08 0.84 -0.1 0.82 -0.1 0.82 -0.11 0.81 -0.13 0.8 -0.13 0.79 -0.14 0.78 -0.16 0.77 -0.16 0.75 -0.18 0.76 -0.19 0.74 -0.19 0.73 -0.21 0.72 -0.22 0.71 -0.23 0.7 -0.24 0.69 -0.26 0.69 -0.26 0.66 -0.27 0.67 -0.29 0.65 -0.3 0.64 -0.31 0.63 -0.32 0.62 -0.33 0.61 -7.36 -4.13 0.25 -0.44 0.23 -0.46 0.24 -0.47 0.22 -0.48 0.21 -0.49 0.21 -0.5 0.21 -0.52 0.19 -0.53 0.19 -0.54 0.19 -0.56 0.17 -0.56 0.17 -0.58 0.16 -0.59 0.15 -0.61 0.14 -0.61 0.14 -0.63 0.13 -0.64 0.12 -0.65 0.11 -0.67 0.11 -0.68 0.1 -0.69 0.09 -0.71 0.08 -0.71 0.07 -0.73 0.06 -0.74 0.06 -0.76 0.05 -0.76 0.03 -0.78 0.03 -0.79 0.02 -0.8 0.02 -0.82 0 -0.83 0 0zm-4.16 -20.96l7.38 -4.08 0 0 0.33 0.62 0.32 0.63 0.31 0.64 0.3 0.66 0.29 0.66 0.27 0.67 0.26 0.68 0.26 0.7 0.24 0.7 0.23 0.72 0.22 0.73 0.2 0.73 0.2 0.75 0.19 0.76 0.17 0.76 0.16 0.78 0.16 0.78 0.14 0.8 0.14 0.81 0.12 0.82 0.11 0.83 0.11 0.84 0.09 0.85 0.08 0.86 0.08 0.87 0.06 0.88 0.05 0.89 0.05 0.91 0.03 0.91 0.02 0.92 0.02 0.94 0 0.94 -8.43 0 0 -0.85 -0.02 -0.85 -0.02 -0.84 -0.03 -0.81 -0.03 -0.81 -0.05 -0.79 -0.06 -0.79 -0.06 -0.76 -0.08 -0.76 -0.08 -0.74 -0.09 -0.73 -0.09 -0.71 -0.11 -0.7 -0.11 -0.69 -0.12 -0.67 -0.13 -0.66 -0.14 -0.66 -0.15 -0.63 -0.15 -0.62 -0.16 -0.61 -0.17 -0.6 -0.17 -0.58 -0.18 -0.56 -0.2 -0.56 -0.19 -0.54 -0.21 -0.53 -0.21 -0.52 -0.21 -0.5 -0.23 -0.49 -0.23 -0.48 -0.24 -0.47 -0.24 -0.45 0 0zm-9.18 -6.29l0 -8.43 0 0 0.65 0.01 0.64 0.03 0.64 0.05 0.63 0.08 0.63 0.1 0.63 0.11 0.61 0.15 0.62 0.16 0.6 0.19 0.6 0.21 0.59 0.23 0.58 0.26 0.57 0.28 0.55 0.29 0.55 0.32 0.54 0.34 0.52 0.36 0.51 0.38 0.51 0.4 0.48 0.41 0.48 0.43 0.46 0.46 0.45 0.46 0.44 0.49 0.43 0.5 0.41 0.52 0.4 0.53 0.39 0.55 0.38 0.56 0.37 0.58 0.35 0.6 0.35 0.6 -7.38 4.08 -0.25 -0.43 -0.25 -0.42 -0.25 -0.39 -0.25 -0.38 -0.26 -0.37 -0.26 -0.34 -0.26 -0.33 -0.26 -0.31 -0.27 -0.29 -0.26 -0.28 -0.27 -0.26 -0.27 -0.24 -0.27 -0.23 -0.26 -0.21 -0.28 -0.2 -0.27 -0.19 -0.27 -0.17 -0.28 -0.16 -0.28 -0.16 -0.29 -0.13 -0.28 -0.13 -0.29 -0.11 -0.3 -0.11 -0.3 -0.09 -0.31 -0.08 -0.31 -0.08 -0.33 -0.06 -0.33 -0.05 -0.34 -0.04 -0.35 -0.03 -0.36 -0.02 -0.37 0 0 0zm-34.15 -8.43l34.15 0 0 8.43 -34.15 0 -4.21 -4.22 4.21 -4.21zm0 8.43c-2.32,0 -4.21,-1.89 -4.21,-4.22 0,-2.33 1.89,-4.21 4.21,-4.21l0 8.43zm-4.21 58l0 -62.22 8.43 0 0 62.22 -4.22 4.21 -4.21 -4.21zm8.43 0c0,2.33 -1.89,4.21 -4.22,4.21 -2.32,0 -4.21,-1.88 -4.21,-4.21l8.43 0z"/>
   <path id="1" class="fil4" d="M209.91 668.36c5.62,0 10.71,1.37 15.28,4.12 4.57,2.74 8.49,6.53 11.78,11.37 3.29,4.85 5.81,10.53 7.58,17.07 1.76,6.54 2.64,13.6 2.64,21.18 0,9.37 -1.28,17.44 -3.85,24.21 -2.56,6.78 -6.73,12.27 -12.5,16.47 2.88,1.77 5.53,4.39 7.93,7.86 2.41,3.48 4.49,7.31 6.25,11.5 1.77,4.2 3.13,8.68 4.09,13.44 0.96,4.76 1.45,9.32 1.45,13.68 0,7.75 -0.89,14.93 -2.65,21.55 -1.76,6.61 -4.29,12.38 -7.58,17.31 -3.28,4.92 -7.21,8.79 -11.78,11.62 -4.57,2.82 -9.66,4.23 -15.27,4.23l-89.94 0 0 -195.61 86.57 0zm-49.3 84.01l33.91 0c11.23,0 16.84,-9.77 16.84,-29.3 0,-9.68 -1.45,-17.15 -4.33,-22.39 -2.89,-5.25 -7.06,-7.87 -12.51,-7.87l-33.91 0 0 59.56zm0 87.64l37.04 0c5.13,0 9.26,-2.95 12.38,-8.84 3.13,-5.89 4.69,-13.6 4.69,-23.12 0,-4.36 -0.4,-8.43 -1.2,-12.23 -0.8,-3.79 -1.96,-7.1 -3.49,-9.92 -1.52,-2.83 -3.32,-5.05 -5.41,-6.66 -2.08,-1.61 -4.41,-2.42 -6.97,-2.42l-37.04 0 0 63.19zm140.59 -171.65l0 142.59c0,3.88 0.4,7.55 1.21,11.02 0.8,3.47 1.92,6.54 3.37,9.2 1.44,2.66 3.2,4.8 5.29,6.42 2.08,1.61 4.48,2.42 7.21,2.42l20.68 0c2.57,0 4.89,-0.81 6.98,-2.42 2.08,-1.62 3.84,-3.76 5.29,-6.42 1.44,-2.66 2.56,-5.73 3.36,-9.2 0.81,-3.47 1.21,-7.14 1.21,-11.02l0 -142.59 36.07 0 0 142.59c0,7.43 -0.88,14.37 -2.64,20.83 -1.77,6.45 -4.25,12.06 -7.46,16.82 -3.21,4.76 -7.09,8.51 -11.66,11.26 -4.57,2.74 -9.74,4.11 -15.52,4.11l-51.94 0c-5.77,0 -10.94,-1.37 -15.51,-4.11 -4.57,-2.75 -8.46,-6.5 -11.67,-11.26 -3.2,-4.76 -5.65,-10.37 -7.33,-16.82 -1.69,-6.46 -2.53,-13.4 -2.53,-20.83l0 -142.59 35.59 0zm186.77 0c15.07,0 26.1,4.24 33.07,12.71 6.98,8.47 10.46,22.31 10.46,41.52 0,9.84 -1.8,18.52 -5.41,26.02 -3.6,7.51 -9.98,13.12 -19.12,16.83 4.01,1.45 7.58,3.15 10.71,5.09 3.12,1.93 5.77,4.35 7.93,7.26 2.17,2.9 3.85,6.37 5.05,10.41 1.2,4.03 1.8,8.79 1.8,14.28l0 61.49 -35.59 0 0 -47.45c0,-24.85 -5.85,-37.28 -17.56,-37.28l-33.42 0 0 84.73 -37.28 0 0 -195.61 79.36 0zm-42.08 86.67l34.14 0c5.46,0 9.75,-2.78 12.87,-8.35 3.13,-5.57 4.69,-13.04 4.69,-22.4 0,-9.68 -1.56,-17.35 -4.69,-23 -3.12,-5.65 -7.41,-8.47 -12.87,-8.47l-34.14 0 0 62.22zm223.8 -86.67l0 24.45 -65.41 0c-2.57,0 -4.89,0.81 -6.98,2.42 -2.08,1.62 -3.88,3.76 -5.41,6.42 -1.52,2.66 -2.72,5.77 -3.61,9.32 -0.88,3.55 -1.32,7.26 -1.32,11.13l0 88.85c0,3.72 0.4,7.31 1.2,10.78 0.81,3.47 1.97,6.58 3.49,9.32 1.52,2.74 3.37,4.92 5.53,6.54 2.17,1.61 4.53,2.42 7.1,2.42l33.91 0 0 -62.22 -32.23 0 0 -24.21 66.62 0 0 110.39 -83.94 0c-5.61,0 -10.7,-1.37 -15.27,-4.11 -4.57,-2.75 -8.45,-6.5 -11.66,-11.26 -3.21,-4.76 -5.69,-10.37 -7.46,-16.82 -1.76,-6.46 -2.64,-13.4 -2.64,-20.83l0 -88.85c0,-7.58 0.92,-14.64 2.76,-21.18 1.85,-6.54 4.37,-12.22 7.58,-17.07 3.21,-4.84 7.09,-8.63 11.66,-11.37 4.57,-2.75 9.58,-4.12 15.03,-4.12l81.05 0zm143.96 0l0 24.45 -81.29 0 0 61.01 59.17 0 0 23.97 -59.17 0 0 62.22 81.29 0 0 23.96 -119.04 0 0 -195.61 119.04 0zm99.71 0c15.07,0 26.09,4.24 33.07,12.71 6.97,8.47 10.46,22.31 10.46,41.52 0,9.84 -1.8,18.52 -5.41,26.02 -3.61,7.51 -9.98,13.12 -19.12,16.83 4,1.45 7.58,3.15 10.7,5.09 3.13,1.93 5.77,4.35 7.94,7.26 2.16,2.9 3.85,6.37 5.05,10.41 1.2,4.03 1.8,8.79 1.8,14.28l0 61.49 -35.59 0 0 -47.45c0,-24.85 -5.85,-37.28 -17.56,-37.28l-33.43 0 0 84.73 -37.27 0 0 -195.61 79.36 0zm-42.09 86.67l34.15 0c5.46,0 9.74,-2.78 12.87,-8.35 3.12,-5.57 4.69,-13.04 4.69,-22.4 0,-9.68 -1.57,-17.35 -4.69,-23 -3.13,-5.65 -7.41,-8.47 -12.87,-8.47l-34.15 0 0 62.22z"/>
  </g>
  <g>
   <g>
    <path class="fil4" d="M503.5 98.92c-1.22,-2.65 -0.07,-5.78 2.57,-7 2.64,-1.22 5.77,-0.07 6.99,2.57l-9.56 4.43zm28.02 35.88l-10.36 1.94 0 0 -0.18 -0.84 -0.21 -0.88 -0.26 -0.93 -0.3 -0.96 -0.34 -1 -0.37 -1.03 -0.41 -1.07 -0.45 -1.09 -0.48 -1.11 -0.5 -1.14 -0.53 -1.16 -0.56 -1.19 -0.58 -1.19 -0.61 -1.22 -0.62 -1.22 -0.64 -1.25 -0.65 -1.25 -0.66 -1.26 -0.68 -1.27 -0.67 -1.28 -0.69 -1.28 -0.69 -1.29 -0.69 -1.29 -0.69 -1.3 -0.69 -1.3 -0.67 -1.29 -0.68 -1.3 -0.66 -1.29 -0.65 -1.29 -0.63 -1.29 -0.62 -1.29 -0.6 -1.27 9.56 -4.43 0.56 1.18 0.57 1.19 0.6 1.21 0.61 1.22 0.64 1.24 0.64 1.25 0.66 1.25 0.67 1.27 0.68 1.28 0.69 1.28 0.68 1.29 0.7 1.29 0.68 1.3 0.69 1.29 0.68 1.3 0.68 1.29 0.66 1.3 0.66 1.29 0.64 1.29 0.62 1.29 0.61 1.28 0.59 1.28 0.56 1.27 0.54 1.26 0.51 1.26 0.49 1.25 0.45 1.25 0.42 1.24 0.38 1.23 0.35 1.24 0.3 1.22 0.25 1.23 0 0zm-14.69 61.57l-10.33 2.08 0 -0.01 -0.44 -2.6 -0.26 -2.6 -0.1 -2.56 0.05 -2.53 0.18 -2.49 0.31 -2.46 0.42 -2.41 0.51 -2.38 0.6 -2.33 0.67 -2.29 0.74 -2.24 0.78 -2.21 0.83 -2.15 0.86 -2.12 0.87 -2.07 0.88 -2.03 0.88 -1.99 0.87 -1.93 0.85 -1.89 0.82 -1.84 0.77 -1.78 0.73 -1.73 0.66 -1.66 0.6 -1.61 0.51 -1.53 0.43 -1.46 0.34 -1.37 0.25 -1.28 0.15 -1.19 0.05 -1.09 -0.03 -0.98 -0.12 -0.9 10.36 -1.94 0.26 1.95 0.07 1.95 -0.09 1.93 -0.24 1.91 -0.36 1.9 -0.47 1.88 -0.55 1.87 -0.63 1.87 -0.69 1.87 -0.74 1.87 -0.79 1.88 -0.82 1.89 -0.84 1.89 -0.86 1.91 -0.86 1.92 -0.86 1.92 -0.84 1.94 -0.82 1.94 -0.79 1.96 -0.75 1.95 -0.7 1.96 -0.64 1.96 -0.58 1.96 -0.5 1.96 -0.43 1.96 -0.34 1.95 -0.24 1.95 -0.14 1.94 -0.04 1.93 0.08 1.93 0.19 1.93 0.32 1.94 0 0zm10.7 21.68l-9.16 5.22 -0.34 -0.6 -0.35 -0.61 -0.37 -0.64 -0.39 -0.67 -0.39 -0.67 -0.41 -0.71 -0.42 -0.72 -0.42 -0.73 -0.43 -0.75 -0.43 -0.76 -0.44 -0.77 -0.44 -0.79 -0.44 -0.79 -0.44 -0.8 -0.43 -0.81 -0.43 -0.81 -0.43 -0.82 -0.42 -0.83 -0.42 -0.82 -0.4 -0.83 -0.39 -0.83 -0.38 -0.82 -0.37 -0.83 -0.36 -0.83 -0.34 -0.83 -0.32 -0.82 -0.3 -0.82 -0.28 -0.82 -0.26 -0.82 -0.24 -0.83 -0.21 -0.82 -0.18 -0.82 10.33 -2.08 0.11 0.46 0.12 0.5 0.16 0.53 0.18 0.57 0.2 0.6 0.23 0.62 0.25 0.64 0.28 0.67 0.29 0.68 0.31 0.7 0.32 0.7 0.35 0.73 0.35 0.73 0.37 0.73 0.38 0.75 0.39 0.74 0.4 0.75 0.41 0.76 0.41 0.74 0.41 0.75 0.42 0.75 0.42 0.74 0.41 0.73 0.42 0.72 0.41 0.72 0.41 0.71 0.4 0.69 0.4 0.69 0.39 0.67 0.38 0.65 0.37 0.64 0.35 0.62zm0 0c1.44,2.53 0.56,5.75 -1.97,7.19 -2.53,1.44 -5.75,0.56 -7.19,-1.97l9.16 -5.22z"/>
   </g>
   <g>
    <path class="fil4" d="M529.19 91.6c-1.22,-2.64 -0.07,-5.77 2.57,-6.99 2.64,-1.22 5.77,-0.07 6.99,2.57l-9.56 4.42zm32.33 45.21l-10.36 1.94 0 0 -0.23 -1.09 -0.27 -1.13 -0.33 -1.18 -0.38 -1.23 -0.43 -1.27 -0.48 -1.3 -0.51 -1.34 -0.56 -1.37 -0.6 -1.4 -0.63 -1.43 -0.67 -1.45 -0.7 -1.47 -0.73 -1.5 -0.75 -1.51 -0.77 -1.53 -0.79 -1.54 -0.81 -1.56 -0.83 -1.57 -0.83 -1.58 -0.85 -1.58 -0.85 -1.59 -0.85 -1.6 -0.86 -1.6 -0.85 -1.6 -0.84 -1.6 -0.84 -1.6 -0.83 -1.6 -0.82 -1.6 -0.8 -1.59 -0.78 -1.59 -0.76 -1.58 -0.74 -1.57 9.56 -4.42 0.69 1.47 0.72 1.49 0.74 1.5 0.77 1.53 0.79 1.53 0.8 1.56 0.82 1.56 0.83 1.58 0.84 1.58 0.85 1.59 0.86 1.59 0.85 1.6 0.85 1.6 0.85 1.61 0.84 1.6 0.84 1.6 0.82 1.6 0.8 1.59 0.79 1.59 0.77 1.58 0.75 1.58 0.72 1.56 0.69 1.56 0.66 1.55 0.63 1.54 0.59 1.53 0.55 1.52 0.51 1.5 0.46 1.5 0.42 1.49 0.36 1.48 0.31 1.47 0 0zm-18.19 76.28l-10.33 2.08 0 0 -0.42 -2.65 -0.22 -2.7 -0.03 -2.72 0.13 -2.74 0.28 -2.76 0.4 -2.79 0.53 -2.8 0.62 -2.8 0.72 -2.82 0.8 -2.82 0.86 -2.81 0.92 -2.82 0.97 -2.79 1 -2.78 1.02 -2.76 1.03 -2.72 1.04 -2.69 1.02 -2.64 1.01 -2.59 0.97 -2.53 0.93 -2.46 0.87 -2.39 0.81 -2.3 0.74 -2.2 0.64 -2.1 0.55 -1.97 0.45 -1.84 0.33 -1.69 0.21 -1.51 0.09 -1.31 -0.01 -1.08 -0.1 -0.84 10.36 -1.94 0.25 2.08 0.04 2.1 -0.15 2.11 -0.3 2.15 -0.43 2.18 -0.54 2.24 -0.64 2.29 -0.72 2.35 -0.8 2.4 -0.86 2.44 -0.92 2.5 -0.95 2.53 -0.99 2.58 -1.01 2.61 -1.02 2.63 -1.02 2.65 -1.02 2.66 -0.99 2.67 -0.95 2.67 -0.92 2.65 -0.86 2.64 -0.81 2.61 -0.72 2.58 -0.65 2.53 -0.55 2.48 -0.46 2.41 -0.34 2.34 -0.22 2.25 -0.1 2.15 0.02 2.05 0.15 1.93 0.29 1.82 0 0zm13.39 27.23l-9.16 5.22 -0.42 -0.74 -0.44 -0.77 -0.46 -0.79 -0.47 -0.82 -0.5 -0.85 -0.5 -0.87 -0.51 -0.89 -0.53 -0.9 -0.53 -0.93 -0.53 -0.94 -0.54 -0.95 -0.54 -0.97 -0.54 -0.98 -0.54 -0.98 -0.54 -1 -0.53 -1 -0.52 -1 -0.52 -1.01 -0.51 -1.01 -0.49 -1.02 -0.48 -1.01 -0.47 -1.01 -0.45 -1.01 -0.43 -1.01 -0.41 -1 -0.39 -1 -0.37 -0.99 -0.34 -1 -0.31 -0.98 -0.28 -0.98 -0.25 -0.98 -0.22 -0.98 10.33 -2.08 0.14 0.61 0.16 0.66 0.21 0.7 0.23 0.73 0.26 0.77 0.29 0.79 0.32 0.82 0.35 0.84 0.37 0.86 0.39 0.88 0.41 0.89 0.43 0.91 0.45 0.92 0.46 0.92 0.47 0.93 0.49 0.93 0.5 0.94 0.51 0.94 0.51 0.93 0.51 0.94 0.52 0.92 0.52 0.92 0.52 0.91 0.52 0.9 0.51 0.9 0.51 0.87 0.5 0.86 0.49 0.85 0.48 0.83 0.47 0.81 0.45 0.78 0.44 0.77zm0 0c1.44,2.53 0.56,5.75 -1.97,7.19 -2.53,1.44 -5.75,0.56 -7.19,-1.97l9.16 -5.22z"/>
   </g>
   <g>
    <path class="fil4" d="M572.45 154.64c-1.22,-2.64 -0.07,-5.78 2.57,-7 2.64,-1.22 5.78,-0.07 7,2.57l-9.57 4.43zm17.52 13.81l-10.54 0.25 0 0 -0.01 -0.4 -0.04 -0.39 -0.05 -0.39 -0.06 -0.36 -0.08 -0.37 -0.1 -0.36 -0.1 -0.35 -0.13 -0.36 -0.14 -0.36 -0.15 -0.36 -0.16 -0.36 -0.19 -0.38 -0.2 -0.38 -0.21 -0.38 -0.22 -0.39 -0.25 -0.41 -0.25 -0.41 -0.27 -0.41 -0.28 -0.43 -0.28 -0.44 -0.3 -0.45 -0.31 -0.46 -0.32 -0.47 -0.32 -0.5 -0.32 -0.49 -0.33 -0.52 -0.33 -0.54 -0.32 -0.55 -0.33 -0.56 -0.32 -0.59 -0.31 -0.61 -0.3 -0.63 9.57 -4.43 0.17 0.37 0.2 0.38 0.21 0.38 0.22 0.39 0.24 0.41 0.24 0.4 0.27 0.41 0.27 0.43 0.29 0.44 0.29 0.44 0.31 0.46 0.31 0.47 0.32 0.48 0.32 0.5 0.33 0.51 0.33 0.53 0.32 0.54 0.33 0.57 0.32 0.58 0.32 0.6 0.3 0.62 0.3 0.65 0.28 0.67 0.26 0.69 0.25 0.71 0.22 0.74 0.2 0.76 0.17 0.78 0.14 0.81 0.11 0.82 0.07 0.84 0.04 0.86 0 0zm-14.77 60.73l-10.34 2.08 0 -0.01 -0.41 -2.43 -0.25 -2.43 -0.11 -2.41 0.02 -2.38 0.15 -2.35 0.26 -2.33 0.35 -2.3 0.45 -2.26 0.53 -2.24 0.59 -2.2 0.66 -2.17 0.71 -2.14 0.74 -2.11 0.78 -2.08 0.8 -2.04 0.81 -2.02 0.83 -1.98 0.81 -1.95 0.81 -1.91 0.79 -1.88 0.76 -1.85 0.73 -1.8 0.68 -1.76 0.63 -1.73 0.57 -1.67 0.51 -1.62 0.43 -1.57 0.36 -1.52 0.27 -1.45 0.19 -1.39 0.11 -1.32 0.01 -1.26 10.54 -0.25 -0.02 1.98 -0.15 1.98 -0.27 1.96 -0.37 1.95 -0.46 1.93 -0.53 1.93 -0.6 1.93 -0.66 1.91 -0.7 1.92 -0.74 1.91 -0.77 1.92 -0.79 1.91 -0.8 1.92 -0.81 1.92 -0.8 1.92 -0.8 1.92 -0.78 1.92 -0.75 1.91 -0.71 1.92 -0.68 1.91 -0.63 1.9 -0.57 1.9 -0.51 1.89 -0.45 1.88 -0.37 1.87 -0.29 1.85 -0.2 1.84 -0.11 1.83 -0.02 1.82 0.08 1.8 0.19 1.79 0.3 1.79 0 0zm10.7 21.68l-9.16 5.22 -0.34 -0.59 -0.36 -0.62 -0.37 -0.64 -0.38 -0.67 -0.4 -0.68 -0.41 -0.7 -0.41 -0.72 -0.42 -0.73 -0.43 -0.75 -0.44 -0.76 -0.44 -0.77 -0.43 -0.79 -0.44 -0.79 -0.44 -0.8 -0.44 -0.81 -0.43 -0.82 -0.43 -0.81 -0.42 -0.82 -0.41 -0.83 -0.4 -0.83 -0.4 -0.83 -0.38 -0.82 -0.37 -0.83 -0.35 -0.83 -0.34 -0.83 -0.32 -0.82 -0.3 -0.82 -0.29 -0.82 -0.26 -0.82 -0.23 -0.83 -0.21 -0.82 -0.19 -0.82 10.34 -2.08 0.1 0.46 0.13 0.5 0.15 0.53 0.18 0.57 0.21 0.6 0.22 0.62 0.26 0.65 0.27 0.66 0.29 0.68 0.31 0.7 0.33 0.7 0.34 0.73 0.36 0.73 0.36 0.73 0.39 0.74 0.39 0.76 0.4 0.75 0.4 0.75 0.41 0.74 0.41 0.75 0.42 0.75 0.42 0.73 0.42 0.74 0.41 0.72 0.42 0.72 0.41 0.71 0.4 0.69 0.4 0.69 0.38 0.67 0.38 0.65 0.37 0.64 0.36 0.62zm0 0c1.44,2.53 0.55,5.75 -1.97,7.19 -2.53,1.44 -5.75,0.56 -7.19,-1.97l9.16 -5.22z"/>
   </g>
  </g>
  <path class="fil5" d="M158.19 953.2l-60.3 0 0 17.76 95.46 0c0,3.4 -0.72,6.33 -2.17,8.78 -1.45,2.46 -3.5,4.48 -6.15,6.05 -2.64,1.58 -5.7,2.74 -9.17,3.5 -3.46,0.75 -7.21,1.13 -11.24,1.13l-69.94 0c-3.91,0 -7.56,-0.47 -10.96,-1.42 -3.41,-0.94 -6.4,-2.26 -8.98,-3.96 -2.59,-1.71 -4.63,-3.75 -6.15,-6.14 -1.51,-2.4 -2.27,-5.11 -2.27,-8.13l0 -55.36c0,-2.9 0.76,-5.54 2.27,-7.94 1.52,-2.39 3.56,-4.44 6.15,-6.14 2.58,-1.7 5.57,-3.05 8.98,-4.06 3.4,-1.01 6.99,-1.51 10.77,-1.51l70.13 0c8.69,0 15.66,1.7 20.89,5.1 5.23,3.4 7.84,8.31 7.84,14.74l-95.46 0 0 17.57 60.3 0 0 20.03zm301.74 -20.03c0,6.68 -3.21,11.68 -9.64,15.02 -6.42,3.34 -15.06,5.01 -25.89,5.01l-47.26 0c0,-2.02 0.34,-4.25 1.04,-6.71 0.69,-2.46 1.76,-4.63 3.21,-6.52 1.45,-1.89 3.37,-3.49 5.77,-4.82 2.39,-1.32 5.23,-1.98 8.5,-1.98l32.52 0 0 -17.57 -63.71 0 0 52.71c0,8.82 -2.7,14.87 -8.12,18.14 -2.78,1.64 -5.93,2.71 -9.46,3.21 -3.52,0.51 -7.11,0.76 -10.77,0.76l-3.21 0 0 -94.66 98.1 0c8.57,0 15.53,1.7 20.89,5.1 5.35,3.4 8.03,8.31 8.03,14.74l0 17.57zm101.94 57.44l-45.17 -57.44 49.14 0 0 -17.57 -64.08 0 0 52.34c0,8.94 -2.71,14.98 -8.13,18.13 -2.77,1.64 -5.92,2.71 -9.45,3.22 -3.52,0.5 -7.12,0.75 -10.77,0.75l-3.21 0 0 -94.28 98.29 0c8.82,0 15.81,1.7 20.98,5.1 5.17,3.4 7.75,8.31 7.75,14.74l0 17.95c0,6.04 -2.36,10.77 -7.09,14.17 -4.72,3.4 -11.43,5.29 -20.13,5.67l30.24 37.22 -38.37 0zm140.51 -37.41l-60.3 0 0 17.76 95.46 0c0,3.4 -0.73,6.33 -2.18,8.78 -1.45,2.46 -3.5,4.48 -6.14,6.05 -2.65,1.58 -5.7,2.74 -9.17,3.5 -3.47,0.75 -7.22,1.13 -11.25,1.13l-69.94 0c-3.9,0 -7.56,-0.47 -10.96,-1.42 -3.4,-0.94 -6.4,-2.26 -8.98,-3.96 -2.58,-1.71 -4.63,-3.75 -6.14,-6.14 -1.51,-2.4 -2.27,-5.11 -2.27,-8.13l0 -55.36c0,-2.9 0.76,-5.54 2.27,-7.94 1.51,-2.39 3.56,-4.44 6.14,-6.14 2.58,-1.7 5.58,-3.05 8.98,-4.06 3.4,-1.01 6.99,-1.51 10.77,-1.51l70.13 0c8.7,0 15.66,1.7 20.89,5.1 5.23,3.4 7.85,8.31 7.85,14.74l-95.46 0 0 17.57 60.3 0 0 20.03zm173.2 17.57c0,6.8 -2.8,11.81 -8.41,15.02 -5.61,3.21 -12.95,4.82 -22.02,4.82l-67.3 0c-3.78,0 -7.46,-0.41 -11.05,-1.23 -3.6,-0.82 -6.81,-2.08 -9.64,-3.78 -2.84,-1.7 -5.11,-3.75 -6.81,-6.14 -1.7,-2.39 -2.55,-5.23 -2.55,-8.5l96.21 0 0 -17.76 -67.48 0c-3.78,0 -7.4,-0.41 -10.87,-1.23 -3.46,-0.82 -6.52,-2.08 -9.17,-3.78 -2.64,-1.7 -4.75,-3.78 -6.33,-6.23 -1.57,-2.46 -2.36,-5.39 -2.36,-8.79l0 -15.68c0,-3.78 0.79,-7.06 2.36,-9.83 1.58,-2.77 3.69,-5.04 6.33,-6.8 2.65,-1.76 5.71,-3.05 9.17,-3.87 3.47,-0.82 7.15,-1.23 11.06,-1.23l68.8 0c9.08,0 16.36,1.54 21.84,4.63 5.48,3.08 8.22,8.15 8.22,15.21l-95.46 0 0 17.57 65.22 0c3.78,0 7.49,0.35 11.15,1.04 3.65,0.69 6.87,1.79 9.64,3.31 2.77,1.51 5.04,3.49 6.8,5.95 1.77,2.45 2.65,5.26 2.65,8.4l0 18.9zm138.05 0c0,6.8 -2.81,11.81 -8.42,15.02 -5.6,3.21 -12.94,4.82 -22.02,4.82l-67.29 0c-3.78,0 -7.47,-0.41 -11.06,-1.23 -3.59,-0.82 -6.8,-2.08 -9.64,-3.78 -2.84,-1.7 -5.1,-3.75 -6.8,-6.14 -1.71,-2.39 -2.56,-5.23 -2.56,-8.5l96.22 0 0 -17.76 -67.48 0c-3.78,0 -7.41,-0.41 -10.87,-1.23 -3.47,-0.82 -6.52,-2.08 -9.17,-3.78 -2.65,-1.7 -4.76,-3.78 -6.33,-6.23 -1.58,-2.46 -2.37,-5.39 -2.37,-8.79l0 -15.68c0,-3.78 0.79,-7.06 2.37,-9.83 1.57,-2.77 3.68,-5.04 6.33,-6.8 2.65,-1.76 5.7,-3.05 9.17,-3.87 3.46,-0.82 7.15,-1.23 11.05,-1.23l68.81 0c9.07,0 16.35,1.54 21.83,4.63 5.48,3.08 8.23,8.15 8.23,15.21l-95.46 0 0 17.57 65.21 0c3.78,0 7.5,0.35 11.15,1.04 3.66,0.69 6.87,1.79 9.64,3.31 2.78,1.51 5.05,3.49 6.81,5.95 1.76,2.45 2.65,5.26 2.65,8.4l0 18.9z"/>
  <g>
   <path class="fil6 str1" d="M464.14 348.14c5.24,0 9.49,3.84 9.49,8.57 0,4.74 -4.25,8.58 -9.49,8.58 -5.23,0 -9.48,-3.84 -9.48,-8.58 0,-4.73 4.25,-8.57 9.48,-8.57z"/>
   <path class="fil6 str1" d="M425.53 369.82c5.24,0 9.48,3.83 9.48,8.57 0,4.74 -4.24,8.58 -9.48,8.58 -5.24,0 -9.48,-3.84 -9.48,-8.58 0,-4.74 4.24,-8.57 9.48,-8.57z"/>
   <path class="fil6 str1" d="M460.08 385.17c5.24,0 9.48,3.84 9.48,8.57 0,4.74 -4.24,8.58 -9.48,8.58 -5.24,0 -9.48,-3.84 -9.48,-8.58 0,-4.73 4.24,-8.57 9.48,-8.57z"/>
   <path class="fil6 str1" d="M487.85 361.69c5.24,0 9.49,3.84 9.49,8.58 0,4.73 -4.25,8.57 -9.49,8.57 -5.23,0 -9.48,-3.84 -9.48,-8.57 0,-4.74 4.25,-8.58 9.48,-8.58z"/>
   <path class="fil6 str1" d="M513.6 341.14c5.23,0 9.48,3.84 9.48,8.58 0,4.74 -4.25,8.57 -9.48,8.57 -5.24,0 -9.49,-3.83 -9.49,-8.57 0,-4.74 4.25,-8.58 9.49,-8.58z"/>
   <path class="fil6 str1" d="M542.27 323.98c5.24,0 9.48,3.84 9.48,8.57 0,4.74 -4.24,8.58 -9.48,8.58 -5.24,0 -9.48,-3.84 -9.48,-8.58 0,-4.73 4.24,-8.57 9.48,-8.57z"/>
   <path class="fil6 str1" d="M550.18 356.5c5.23,0 9.48,3.83 9.48,8.57 0,4.74 -4.25,8.58 -9.48,8.58 -5.24,0 -9.49,-3.84 -9.49,-8.58 0,-4.74 4.25,-8.57 9.49,-8.57z"/>
   <path class="fil6 str1" d="M521.5 380.66c5.23,0 9.48,3.83 9.48,8.57 0,4.74 -4.25,8.58 -9.48,8.58 -5.24,0 -9.49,-3.84 -9.49,-8.58 0,-4.74 4.25,-8.57 9.49,-8.57z"/>
   <path class="fil6 str1" d="M578.62 376.37c5.24,0 9.49,3.84 9.49,8.57 0,4.74 -4.25,8.58 -9.49,8.58 -5.23,0 -9.48,-3.84 -9.48,-8.58 0,-4.73 4.25,-8.57 9.48,-8.57z"/>
   <path class="fil6 str1" d="M581.33 333.69c5.24,0 9.49,3.83 9.49,8.57 0,4.74 -4.25,8.58 -9.49,8.58 -5.23,0 -9.48,-3.84 -9.48,-8.58 0,-4.74 4.25,-8.57 9.48,-8.57z"/>
   <path class="fil6 str1" d="M621.07 332.11c5.24,0 9.49,3.84 9.49,8.58 0,4.73 -4.25,8.57 -9.49,8.57 -5.23,0 -9.48,-3.84 -9.48,-8.57 0,-4.74 4.25,-8.58 9.48,-8.58z"/>
   <path class="fil6 str1" d="M647.96 357.86c5.23,0 9.48,3.84 9.48,8.58 0,4.74 -4.25,8.57 -9.48,8.57 -5.24,0 -9.48,-3.83 -9.48,-8.57 0,-4.74 4.24,-8.58 9.48,-8.58z"/>
   <path class="fil6 str1" d="M604.61 361.02c5.23,0 9.48,3.84 9.48,8.58 0,4.74 -4.25,8.57 -9.48,8.57 -5.24,0 -9.49,-3.83 -9.49,-8.57 0,-4.74 4.25,-8.58 9.49,-8.58z"/>
   <path class="fil6 str1" d="M626.73 378.41c5.24,0 9.49,3.84 9.49,8.58 0,4.73 -4.25,8.57 -9.49,8.57 -5.23,0 -9.48,-3.84 -9.48,-8.57 0,-4.74 4.25,-8.58 9.48,-8.58z"/>
   <path class="fil6 str1" d="M680.93 379.09c5.23,0 9.48,3.83 9.48,8.57 0,4.74 -4.25,8.58 -9.48,8.58 -5.24,0 -9.49,-3.84 -9.49,-8.58 0,-4.74 4.25,-8.57 9.49,-8.57z"/>
  </g>
  <polygon class="fil7 str1" points="354.93,459.25 748.89,459.25 754.16,464.52 754.16,464.52 748.89,469.79 354.93,469.79 349.66,464.52 349.66,464.52 "/>
  <path class="fil8 str1" d="M566.45 437.93l127.63 0c4.06,0 7.38,3.32 7.38,7.37l0 0.01c0,4.06 -3.32,7.37 -7.38,7.37l-127.63 0c-4.06,0 -7.38,-3.31 -7.38,-7.37l0 -0.01c0,-4.05 3.32,-7.37 7.38,-7.37z"/>
  <path class="fil8 str1" d="M409.75 437.93l127.63 0c4.06,0 7.38,3.32 7.38,7.37l0 0.01c0,4.06 -3.32,7.37 -7.38,7.37l-127.63 0c-4.06,0 -7.38,-3.31 -7.38,-7.37l0 -0.01c0,-4.05 3.32,-7.37 7.38,-7.37z"/>
  <path class="fil9" d="M260.62 959.04l-15.38 18.2c-2.51,2.88 -5.24,4.92 -8.18,6.12 -2.94,1.19 -5.31,1.92 -7.1,2.15 -1.8,0.24 -2.82,0.36 -3.06,0.36l-23.57 0 39.4 -46.04 -38.32 -44.08 56.21 63.29zm0.81 -37.78l15.11 -16.69c2.52,-2.64 5.28,-4.62 8.28,-5.94 3,-1.32 5.36,-2.13 7.1,-2.43 1.74,-0.3 2.73,-0.45 2.97,-0.45l22.85 0 -38.68 44.79 -17.63 -19.28z"/>
  <path class="fil10" d="M285.69 990.61l-84.26 -94.86 24.81 0c0.38,0 1.45,0.16 3.22,0.48 1.76,0.31 4.26,1.17 7.47,2.55 3.22,1.39 6.16,3.6 8.81,6.63l34.27 37.49 40.7 47.71 -35.02 0z"/>
 </g>
</svg>
